<svg width="42" height="42" viewBox="0 0 42 42" fill="none" xmlns="http://www.w3.org/2000/svg">
<path d="M32.6641 33C33.8133 33 34.9155 33.4565 35.7282 34.2692C36.5409 35.0819 36.9974 36.1841 36.9974 37.3333C36.9974 38.4826 36.5409 39.5848 35.7282 40.3975C34.9155 41.2101 33.8133 41.6667 32.6641 41.6667C31.5148 41.6667 30.4126 41.2101 29.5999 40.3975C28.7873 39.5848 28.3307 38.4826 28.3307 37.3333C28.3307 36.1841 28.7873 35.0819 29.5999 34.2692C30.4126 33.4565 31.5148 33 32.6641 33ZM32.6641 35.1667C32.0894 35.1667 31.5383 35.3949 31.132 35.8013C30.7257 36.2076 30.4974 36.7587 30.4974 37.3333C30.4974 37.908 30.7257 38.4591 31.132 38.8654C31.5383 39.2717 32.0894 39.5 32.6641 39.5C33.2387 39.5 33.7898 39.2717 34.1961 38.8654C34.6025 38.4591 34.8307 37.908 34.8307 37.3333C34.8307 36.7587 34.6025 36.2076 34.1961 35.8013C33.7898 35.3949 33.2387 35.1667 32.6641 35.1667ZM13.1641 33C14.3133 33 15.4155 33.4565 16.2282 34.2692C17.0408 35.0819 17.4974 36.1841 17.4974 37.3333C17.4974 38.4826 17.0408 39.5848 16.2282 40.3975C15.4155 41.2101 14.3133 41.6667 13.1641 41.6667C12.0148 41.6667 10.9126 41.2101 10.0999 40.3975C9.28728 39.5848 8.83073 38.4826 8.83073 37.3333C8.83073 36.1841 9.28728 35.0819 10.0999 34.2692C10.9126 33.4565 12.0148 33 13.1641 33ZM13.1641 35.1667C12.5894 35.1667 12.0383 35.3949 11.632 35.8013C11.2257 36.2076 10.9974 36.7587 10.9974 37.3333C10.9974 37.908 11.2257 38.4591 11.632 38.8654C12.0383 39.2717 12.5894 39.5 13.1641 39.5C13.7387 39.5 14.2898 39.2717 14.6961 38.8654C15.1025 38.4591 15.3307 37.908 15.3307 37.3333C15.3307 36.7587 15.1025 36.2076 14.6961 35.8013C14.2898 35.3949 13.7387 35.1667 13.1641 35.1667ZM36.9974 7H7.24906L12.7741 20H30.4974C31.2124 20 31.8407 19.6533 32.2307 19.1333L38.7307 10.4667C39.0124 10.0983 39.1641 9.64333 39.1641 9.16667C39.1641 8.59203 38.9358 8.04093 38.5295 7.6346C38.1231 7.22827 37.572 7 36.9974 7ZM30.4974 22.1667H12.8824L11.2141 25.5467L10.9974 26.5C10.9974 27.0746 11.2257 27.6257 11.632 28.0321C12.0383 28.4384 12.5894 28.6667 13.1641 28.6667H36.9974V30.8333H13.1641C12.0148 30.8333 10.9126 30.3768 10.0999 29.5641C9.28728 28.7515 8.83073 27.6493 8.83073 26.5C8.83008 25.7648 9.01649 25.0416 9.3724 24.3983L10.9324 21.2133L3.0674 2.66667H0.164062V0.5H4.4974L6.33906 4.83333H36.9974C38.1467 4.83333 39.2489 5.28988 40.0615 6.10254C40.8742 6.91519 41.3307 8.0174 41.3307 9.16667C41.3307 10.25 40.9624 11.16 40.3557 11.8967L34.0507 20.325C33.2707 21.43 31.9707 22.1667 30.4974 22.1667Z" fill="#0D2A25"/>
</svg>
