<svg width="53" height="54" viewBox="0 0 53 54" fill="none" xmlns="http://www.w3.org/2000/svg">
<g clip-path="url(#clip0_1513_223)">
<path d="M53 27C53 12.3645 41.1355 0.5 26.5 0.5C11.8645 0.5 0 12.3645 0 27C0 40.2268 9.69072 51.1902 22.3594 53.1781V34.6602H15.6309V27H22.3594V21.1617C22.3594 14.5202 26.3157 10.8516 32.3689 10.8516C35.2682 10.8516 38.3008 11.3691 38.3008 11.3691V17.8906H34.9593C31.6673 17.8906 30.6406 19.9334 30.6406 22.0292V27H37.9902L36.8153 34.6602H30.6406V53.1781C43.3093 51.1902 53 40.227 53 27Z" fill="#1877F2"/>
<path d="M36.8173 34.6602L37.9922 27H30.6426V22.0292C30.6426 19.9332 31.6692 17.8906 34.9613 17.8906H38.3027V11.3691C38.3027 11.3691 35.2701 10.8516 32.3707 10.8516C26.3177 10.8516 22.3613 14.5202 22.3613 21.1617V27H15.6328V34.6602H22.3613V53.1781C23.7311 53.3927 25.1155 53.5003 26.502 53.5C27.8884 53.5003 29.2728 53.3927 30.6426 53.1781V34.6602H36.8173Z" fill="white"/>
</g>
<defs>
<clipPath id="clip0_1513_223">
<rect width="53" height="53" fill="white" transform="translate(0 0.5)"/>
</clipPath>
</defs>
</svg>
