<svg width="62" height="62" viewBox="0 0 62 62" fill="none" xmlns="http://www.w3.org/2000/svg">
<g clip-path="url(#clip0_1513_226)">
<path d="M1.32367 30.6294C1.32222 35.8386 2.69397 40.925 5.30233 45.4082L1.07422 60.7261L16.8726 56.6158C21.2422 58.9761 26.1381 60.2129 31.1132 60.2133H31.1263C47.5502 60.2133 60.9197 46.9522 60.9267 30.6527C60.9299 22.7545 57.8328 15.3274 52.2058 9.73974C46.5798 4.15253 39.0974 1.07392 31.1251 1.07031C14.6992 1.07031 1.3307 14.3306 1.32391 30.6294" fill="url(#paint0_linear_1513_226)"/>
<path d="M0.259141 30.6194C0.257445 36.016 1.67836 41.2843 4.37972 45.9281L0 61.795L16.3649 57.5374C20.8739 59.9768 25.9506 61.263 31.1165 61.2649H31.1298C48.143 61.2649 61.9927 47.5268 62 30.6439C62.0029 22.4618 58.7944 14.7678 52.9664 8.97991C47.1377 3.19276 39.3877 0.00336434 31.1298 0C14.1137 0 0.265922 13.7361 0.259141 30.6194ZM10.005 45.1283L9.39397 44.1659C6.82533 40.1133 5.46956 35.4301 5.4715 30.6213C5.47683 16.5884 16.9865 5.17147 31.1395 5.17147C37.9934 5.17436 44.4346 7.82546 49.2793 12.6355C54.1238 17.446 56.7896 23.8407 56.7879 30.6419C56.7816 44.6748 45.2716 56.0932 31.1298 56.0932H31.1196C26.5149 56.0908 21.9989 54.8638 18.0604 52.545L17.1231 51.9935L7.41191 54.5199L10.005 45.1283Z" fill="url(#paint1_linear_1513_226)"/>
<path d="M23.4157 17.8188C22.8378 16.5444 22.2297 16.5187 21.6802 16.4963C21.2302 16.4771 20.7158 16.4785 20.2019 16.4785C19.6875 16.4785 18.8517 16.6705 18.1452 17.4359C17.438 18.202 15.4453 20.0534 15.4453 23.8188C15.4453 27.5842 18.2094 31.2235 18.5947 31.7346C18.9805 32.2448 23.9308 40.2193 31.7709 43.2871C38.2867 45.8365 39.6127 45.3294 41.0269 45.2016C42.4412 45.0742 45.5906 43.3507 46.2332 41.5635C46.8762 39.7766 46.8762 38.2449 46.6834 37.9248C46.4906 37.6059 45.9762 37.4144 45.2048 37.0318C44.4335 36.6492 40.641 34.7974 39.9341 34.5419C39.2269 34.2867 38.7127 34.1594 38.1983 34.9257C37.6839 35.6909 36.2068 37.4144 35.7566 37.9248C35.3069 38.4364 34.8566 38.5001 34.0855 38.1173C33.3137 37.7332 30.8295 36.926 27.8824 34.3189C25.5893 32.2902 24.0413 29.785 23.5913 29.0186C23.1413 28.2535 23.5431 27.8387 23.9299 27.4573C24.2764 27.1144 24.7015 26.5636 25.0875 26.1169C25.4721 25.6699 25.6005 25.351 25.8577 24.8406C26.1151 24.3297 25.9863 23.8827 25.7937 23.4999C25.6005 23.1171 24.1016 19.332 23.4157 17.8188Z" fill="white"/>
</g>
<defs>
<linearGradient id="paint0_linear_1513_226" x1="2993.7" y1="5966.65" x2="2993.7" y2="1.07031" gradientUnits="userSpaceOnUse">
<stop stop-color="#1FAF38"/>
<stop offset="1" stop-color="#60D669"/>
</linearGradient>
<linearGradient id="paint1_linear_1513_226" x1="3100" y1="6179.5" x2="3100" y2="0" gradientUnits="userSpaceOnUse">
<stop stop-color="#F9F9F9"/>
<stop offset="1" stop-color="white"/>
</linearGradient>
<clipPath id="clip0_1513_226">
<rect width="62" height="62" fill="white"/>
</clipPath>
</defs>
</svg>
