<svg width="20" height="20" viewBox="0 0 20 20" fill="none" xmlns="http://www.w3.org/2000/svg">
<path d="M11.2462 3.33331C10.9146 3.33331 10.5967 3.46501 10.3623 3.69943C10.1279 3.93385 9.99616 4.25179 9.99616 4.58331C9.99616 4.91483 10.1279 5.23278 10.3623 5.4672C10.5967 5.70162 10.9146 5.83331 11.2462 5.83331C11.5777 5.83331 11.8956 5.70162 12.13 5.4672C12.3645 5.23278 12.4962 4.91483 12.4962 4.58331C12.4962 4.25179 12.3645 3.93385 12.13 3.69943C11.8956 3.46501 11.5777 3.33331 11.2462 3.33331ZM10.9462 7.30831C9.95449 7.39165 7.24616 9.54998 7.24616 9.54998C7.07949 9.67498 7.12949 9.66665 7.26283 9.89998C7.39616 10.125 7.37949 10.1416 7.53783 10.0333C7.70449 9.92498 7.97949 9.74998 8.43783 9.46665C10.2045 8.33331 8.72116 10.95 7.96283 15.3583C7.66283 17.5416 9.62949 16.4166 10.1378 16.0833C10.6378 15.7583 11.9795 14.8333 12.1128 14.7416C12.2962 14.6166 12.1628 14.5166 12.0212 14.3083C11.9212 14.1666 11.8212 14.2666 11.8212 14.2666C11.2795 14.625 10.2878 15.375 10.1545 14.9C9.99616 14.425 11.0128 11.1666 11.5712 8.92498C11.6628 8.39165 11.9128 7.22498 10.9462 7.30831Z" fill="#0D2A25"/>
</svg>
