<svg width="16" height="16" viewBox="0 0 16 16" fill="none" xmlns="http://www.w3.org/2000/svg">
<path d="M7.26 2.00503C7.22604 2.00416 7.19225 2.01012 7.16064 2.02256C7.12903 2.035 7.10024 2.05367 7.07599 2.07746C7.05174 2.10125 7.03251 2.12967 7.01946 2.16103C7.00641 2.19239 6.99979 2.22606 7 2.26003V3.25003C7 3.39003 7.11 3.50003 7.25 3.50003V3.51003C10.365 3.63003 12.87 6.13503 12.99 9.25003H13C13 9.39003 13.11 9.50003 13.25 9.50003H14.24C14.385 9.50003 14.5 9.38003 14.495 9.24003C14.36 5.31003 11.19 2.14003 7.26 2.00503ZM7.26 4.50503C7.22617 4.50463 7.19259 4.51092 7.16119 4.52353C7.12979 4.53615 7.1012 4.55484 7.07704 4.57853C7.05288 4.60222 7.03364 4.63045 7.02042 4.6616C7.0072 4.69274 7.00026 4.72619 7 4.76003V5.75003C7 5.89003 7.11 6.00003 7.25 6.00003V6.01503C8.985 6.13003 10.37 7.51503 10.485 9.25003H10.5C10.5 9.39003 10.61 9.50003 10.75 9.50003H11.74C11.88 9.50003 12 9.38003 11.995 9.24003C11.86 6.69003 9.81 4.64003 7.26 4.50503ZM2.75 5.00003C2.61 5.00003 2.5 5.11003 2.5 5.25003V10.75C2.5 12.54 3.96 14 5.75 14C7.54 14 9 12.54 9 10.75C9 8.96003 7.54 7.50003 5.75 7.50003C5.61 7.50003 5.5 7.61003 5.5 7.75003V9.25003C5.5 9.39003 5.61 9.50003 5.75 9.50003C6.08152 9.50003 6.39946 9.63172 6.63388 9.86614C6.8683 10.1006 7 10.4185 7 10.75C7 11.0815 6.8683 11.3995 6.63388 11.6339C6.39946 11.8683 6.08152 12 5.75 12C5.58585 12 5.4233 11.9677 5.27165 11.9049C5.11999 11.8421 4.98219 11.75 4.86612 11.6339C4.75004 11.5178 4.65797 11.38 4.59515 11.2284C4.53233 11.0767 4.5 10.9142 4.5 10.75V5.25003C4.5 5.11003 4.39 5.00003 4.25 5.00003H2.75Z" fill="#0D2A25"/>
</svg>
