<svg width="6" height="6" viewBox="0 0 12 12" fill="none" xmlns="http://www.w3.org/2000/svg">
<path d="M10.8181 8.17332L9.12474 7.97999C8.92563 7.9566 8.72381 7.97865 8.53445 8.04446C8.34508 8.11028 8.17309 8.21816 8.03141 8.35999L6.80474 9.58665C4.91234 8.62395 3.37412 7.08573 2.41141 5.19332L3.64474 3.95999C3.93141 3.67332 4.07141 3.27332 4.02474 2.86665L3.83141 1.18665C3.79375 0.861381 3.63772 0.561337 3.39305 0.343717C3.14838 0.126097 2.83219 0.00611945 2.50474 0.00665461H1.35141C0.598074 0.00665461 -0.0285927 0.633321 0.018074 1.38665C0.371407 7.07999 4.92474 11.6267 10.6114 11.98C11.3647 12.0267 11.9914 11.4 11.9914 10.6467V9.49332C11.9981 8.81999 11.4914 8.25332 10.8181 8.17332Z" fill="black"/>
</svg>
