<svg width="14" height="13" viewBox="0 0 14 13" fill="none" xmlns="http://www.w3.org/2000/svg">
<path d="M9.35927 10.25C8.90859 10.25 8.5242 10.1208 8.2061 9.86251C7.88801 9.60418 7.7287 9.29272 7.72819 8.92814C7.72767 8.56355 7.88698 8.25168 8.2061 7.99251C8.52523 7.73335 8.90962 7.60439 9.35927 7.60564C9.80892 7.60689 10.1933 7.73605 10.5124 7.99314C10.8316 8.25022 10.9906 8.56189 10.9896 8.92814C10.9886 9.29439 10.8292 9.60605 10.5117 9.86314C10.1941 10.1202 9.80995 10.2492 9.35927 10.25ZM2.21365 12.125C1.85906 12.125 1.56306 12.0288 1.32565 11.8363C1.08823 11.6438 0.969264 11.4036 0.96875 11.1156V3.13439C0.96875 2.84689 1.08772 2.60689 1.32565 2.41439C1.56358 2.22189 1.85983 2.12543 2.21442 2.12501H3.57802V0.731262H4.40821V2.12501H9.92275V0.731262H10.6936V2.12501H12.0572C12.4118 2.12501 12.708 2.22147 12.946 2.41439C13.1839 2.6073 13.3026 2.84751 13.3021 3.13501V7.12532V11.1156C13.3021 11.4031 13.1834 11.6433 12.946 11.8363C12.7085 12.0292 12.412 12.1254 12.0564 12.125H2.21365ZM2.21365 11.5H12.0572C12.1754 11.5 12.2841 11.46 12.3833 11.38C12.4824 11.3 12.5318 11.2117 12.5313 11.115V5.63501H1.73958V11.1156C1.73958 11.2115 1.78892 11.2996 1.88758 11.38C1.98625 11.4604 2.09494 11.5004 2.21365 11.5ZM1.73958 5.00939H12.5313V3.13439C12.5313 3.03855 12.4819 2.95043 12.3833 2.87001C12.2846 2.7896 12.1756 2.7496 12.0564 2.75001H2.21442C2.09571 2.75001 1.98676 2.79001 1.88758 2.87001C1.7884 2.95001 1.73907 3.03835 1.73958 3.13501V5.00939Z" fill="black"/>
</svg>
