<svg width="20" height="20" viewBox="0 0 20 20" fill="none" xmlns="http://www.w3.org/2000/svg">
<path d="M16.6665 8.33336C16.6665 8.11235 16.5787 7.90038 16.4224 7.7441C16.2661 7.58782 16.0542 7.50003 15.8332 7.50003C15.6121 7.50003 15.4002 7.58782 15.2439 7.7441C15.0876 7.90038 14.9998 8.11235 14.9998 8.33336H16.6665ZM4.99982 8.33336C4.99982 8.11235 4.91203 7.90038 4.75574 7.7441C4.59946 7.58782 4.3875 7.50003 4.16649 7.50003C3.94548 7.50003 3.73351 7.58782 3.57723 7.7441C3.42095 7.90038 3.33316 8.11235 3.33316 8.33336H4.99982ZM16.9107 10.5892C17.0678 10.741 17.2783 10.825 17.4968 10.8231C17.7153 10.8212 17.9243 10.7335 18.0788 10.579C18.2333 10.4245 18.321 10.2155 18.3229 9.99703C18.3248 9.77853 18.2408 9.56803 18.089 9.41086L16.9107 10.5892ZM9.99982 2.50003L10.589 1.91086C10.4327 1.75463 10.2208 1.66687 9.99982 1.66687C9.77885 1.66687 9.56693 1.75463 9.41066 1.91086L9.99982 2.50003ZM1.91066 9.41086C1.83106 9.48773 1.76758 9.57968 1.72391 9.68135C1.68023 9.78302 1.65724 9.89237 1.65628 10.003C1.65532 10.1137 1.6764 10.2234 1.71831 10.3258C1.76021 10.4282 1.82208 10.5213 1.90033 10.5995C1.97857 10.6778 2.07161 10.7396 2.17403 10.7815C2.27644 10.8234 2.38618 10.8445 2.49682 10.8436C2.60747 10.8426 2.71682 10.8196 2.81849 10.7759C2.92016 10.7323 3.01212 10.6688 3.08899 10.5892L1.91066 9.41086ZM5.83316 18.3334H14.1665V16.6667H5.83316V18.3334ZM16.6665 15.8334V8.33336H14.9998V15.8334H16.6665ZM4.99982 15.8334V8.33336H3.33316V15.8334H4.99982ZM18.089 9.41086L10.589 1.91086L9.41066 3.08919L16.9107 10.5892L18.089 9.41086ZM9.41066 1.91086L1.91066 9.41086L3.08899 10.5892L10.589 3.08919L9.41066 1.91086ZM14.1665 18.3334C14.8295 18.3334 15.4654 18.07 15.9343 17.6011C16.4031 17.1323 16.6665 16.4964 16.6665 15.8334H14.9998C14.9998 16.0544 14.912 16.2663 14.7557 16.4226C14.5995 16.5789 14.3875 16.6667 14.1665 16.6667V18.3334ZM5.83316 16.6667C5.61214 16.6667 5.40018 16.5789 5.2439 16.4226C5.08762 16.2663 4.99982 16.0544 4.99982 15.8334H3.33316C3.33316 16.4964 3.59655 17.1323 4.06539 17.6011C4.53423 18.07 5.17011 18.3334 5.83316 18.3334V16.6667Z" fill="#0D2A25"/>
</svg>