<svg width="661" height="525" viewBox="0 0 661 525" fill="none" xmlns="http://www.w3.org/2000/svg">
<path d="M14 328.65V304.5L136.85 134.4H175V301H210V328.65H175V385H143.5V328.65H14ZM144.9 167.65L50.75 301H144.9V167.65ZM453.893 328.65V304.5L576.743 134.4H614.893V301H649.893V328.65H614.893V385H583.393V328.65H453.893ZM584.793 167.65L490.643 301H584.793V167.65Z" fill="white"/>
<path d="M241.817 255.85C241.817 215.717 248.351 184.45 261.417 162.05C274.484 139.417 297.351 128.1 330.017 128.1C362.451 128.1 385.201 139.417 398.267 162.05C411.334 184.45 417.867 215.717 417.867 255.85C417.867 296.683 411.334 328.417 398.267 351.05C385.201 373.683 362.451 385 330.017 385C297.351 385 274.484 373.683 261.417 351.05C248.351 328.417 241.817 296.683 241.817 255.85ZM386.367 255.85C386.367 235.55 384.967 218.4 382.167 204.4C379.601 190.167 374.117 178.733 365.717 170.1C357.551 161.467 345.651 157.15 330.017 157.15C314.151 157.15 302.017 161.467 293.617 170.1C285.451 178.733 279.967 190.167 277.167 204.4C274.601 218.4 273.317 235.55 273.317 255.85C273.317 276.85 274.601 294.467 277.167 308.7C279.967 322.933 285.451 334.367 293.617 343C302.017 351.633 314.151 355.95 330.017 355.95C345.651 355.95 357.551 351.633 365.717 343C374.117 334.367 379.601 322.933 382.167 308.7C384.967 294.467 386.367 276.85 386.367 255.85Z" fill="#D9E6BA"/>
<path d="M376.5 262C376.5 269.776 371.5 276.889 363.26 282.083C355.027 287.273 343.623 290.5 331 290.5C318.377 290.5 306.973 287.273 298.74 282.083C290.5 276.889 285.5 269.776 285.5 262C285.5 254.224 290.5 247.111 298.74 241.917C306.973 236.727 318.377 233.5 331 233.5C343.623 233.5 355.027 236.727 363.26 241.917C371.5 247.111 376.5 254.224 376.5 262Z" fill="#D9E6BA" stroke="black"/>
<circle cx="330.5" cy="262.5" r="15.5" fill="#0D2A25"/>
</svg>
