<svg width="429" height="420" viewBox="0 0 429 420" fill="none" xmlns="http://www.w3.org/2000/svg">
<g clip-path="url(#clip0_1724_365)">
<path d="M272.345 94.4574H156.748C154.114 94.4606 151.589 95.5115 149.726 97.3798C147.863 99.248 146.815 101.781 146.812 104.423V362.1L145.487 362.506L117.13 371.216C115.786 371.627 114.334 371.486 113.093 370.825C111.853 370.163 110.924 369.035 110.512 367.688L26.1609 91.3414C25.7504 89.9935 25.8903 88.5372 26.5499 87.2927C27.2095 86.0481 28.3347 85.1171 29.6784 84.7043L73.3776 71.284L200.063 32.3915L243.762 18.9712C244.427 18.7659 245.126 18.6941 245.819 18.7601C246.512 18.826 247.184 19.0283 247.799 19.3553C248.414 19.6824 248.958 20.1278 249.401 20.6661C249.844 21.2044 250.176 21.825 250.38 22.4923L271.941 93.1286L272.345 94.4574Z" fill="#F2F2F2"/>
<path d="M297.568 93.1283L271.581 7.99542C271.149 6.57695 270.442 5.25782 269.501 4.11342C268.56 2.96902 267.404 2.02177 266.098 1.32581C264.792 0.629855 263.362 0.198811 261.89 0.0573338C260.418 -0.0841438 258.932 0.066716 257.518 0.501277L196.08 19.3629L69.401 58.262L7.96257 77.1302C5.10847 78.0092 2.71869 79.9881 1.31779 82.6325C-0.0831167 85.2769 -0.380688 88.3707 0.490401 91.2349L89.3062 382.184C90.0139 384.496 91.4417 386.52 93.3802 387.959C95.3187 389.397 97.6658 390.174 100.077 390.177C101.193 390.177 102.303 390.009 103.369 389.678L145.485 376.75L146.81 376.338V374.949L145.485 375.355L102.978 388.41C100.459 389.18 97.7382 388.916 95.4123 387.677C93.0864 386.438 91.3455 384.324 90.5715 381.799L1.7625 90.8429C1.37902 89.5918 1.24537 88.2772 1.36919 86.9742C1.49301 85.6713 1.87187 84.4056 2.48408 83.2497C3.09629 82.0938 3.92983 81.0704 4.93696 80.2381C5.94408 79.4058 7.10501 78.7809 8.35327 78.3992L69.7917 59.5309L196.471 20.6385L257.909 1.77024C258.856 1.48044 259.84 1.33268 260.83 1.33176C262.955 1.33654 265.022 2.02347 266.729 3.29194C268.436 4.56041 269.693 6.34375 270.316 8.38077L296.183 93.1284L296.594 94.4571H297.972L297.568 93.1283Z" fill="#3F3D56"/>
<path d="M81.2632 84.9199C79.9865 84.919 78.7437 84.5078 77.7171 83.7465C76.6905 82.9852 75.9342 81.914 75.559 80.69L67.027 52.7386C66.7977 51.9878 66.7181 51.1991 66.7928 50.4174C66.8675 49.6357 67.095 48.8765 67.4623 48.183C67.8296 47.4895 68.3296 46.8754 68.9335 46.3758C69.5375 45.8761 70.2337 45.5007 70.9823 45.2709L187.526 9.48521C189.038 9.0225 190.671 9.18031 192.067 9.92401C193.463 10.6677 194.508 11.9365 194.972 13.452L203.504 41.4037C203.965 42.9201 203.807 44.5579 203.066 45.958C202.325 47.358 201.06 48.4059 199.549 48.8718L83.005 84.6575C82.4406 84.8312 81.8536 84.9196 81.2632 84.9199Z" fill="#D9E6BA"/>
<path d="M125.959 29.866C133.276 29.866 139.207 23.917 139.207 16.5785C139.207 9.24003 133.276 3.29102 125.959 3.29102C118.642 3.29102 112.711 9.24003 112.711 16.5785C112.711 23.917 118.642 29.866 125.959 29.866Z" fill="#D9E6BA"/>
<path d="M125.959 24.9941C130.593 24.9941 134.349 21.227 134.349 16.5801C134.349 11.9331 130.593 8.16602 125.959 8.16602C121.326 8.16602 117.57 11.9331 117.57 16.5801C117.57 21.227 121.326 24.9941 125.959 24.9941Z" fill="white"/>
<path d="M399.189 386.781H175.295C173.802 386.779 172.371 386.184 171.315 385.125C170.26 384.066 169.666 382.631 169.664 381.134V112.062C169.666 110.565 170.259 109.13 171.315 108.071C172.371 107.012 173.802 106.417 175.295 106.415H399.189C400.682 106.417 402.113 107.012 403.168 108.071C404.224 109.13 404.817 110.565 404.819 112.062V381.134C404.817 382.631 404.224 384.066 403.168 385.125C402.113 386.184 400.681 386.779 399.189 386.781Z" fill="#E6E6E6"/>
<path d="M296.19 93.1279H156.753C153.768 93.1322 150.906 94.3235 148.795 96.4407C146.684 98.5578 145.496 101.428 145.492 104.422V375.354L146.817 374.949V104.422C146.82 101.78 147.868 99.2473 149.731 97.3791C151.593 95.5109 154.119 94.4599 156.753 94.4567H296.601L296.19 93.1279ZM417.742 93.1279H156.753C153.768 93.1322 150.906 94.3235 148.795 96.4407C146.684 98.5578 145.496 101.428 145.492 104.422V408.706C145.496 411.7 146.684 414.57 148.795 416.687C150.906 418.805 153.768 419.996 156.753 420H417.742C420.728 419.996 423.589 418.805 425.7 416.687C427.811 414.57 428.999 411.7 429.003 408.706V104.422C428.999 101.428 427.811 98.5578 425.7 96.4407C423.589 94.3235 420.728 93.1322 417.742 93.1279ZM427.678 408.706C427.675 411.348 426.627 413.881 424.765 415.749C422.902 417.617 420.376 418.668 417.742 418.671H156.753C154.119 418.668 151.593 417.617 149.731 415.749C147.868 413.881 146.82 411.348 146.817 408.706V104.422C146.82 101.78 147.868 99.2473 149.731 97.3791C151.593 95.5109 154.119 94.4599 156.753 94.4567H417.742C420.376 94.4599 422.902 95.5109 424.765 97.3791C426.627 99.2473 427.675 101.78 427.678 104.422V408.706Z" fill="#3F3D56"/>
<path d="M348.189 122.36H226.305C224.725 122.358 223.209 121.728 222.092 120.607C220.974 119.486 220.346 117.966 220.344 116.381V87.1483C220.346 85.563 220.974 84.0432 222.092 82.9222C223.21 81.8013 224.725 81.1707 226.305 81.1689H348.189C349.769 81.1707 351.285 81.8013 352.402 82.9222C353.52 84.0432 354.149 85.563 354.15 87.1483V116.381C354.149 117.966 353.52 119.486 352.402 120.607C351.285 121.728 349.769 122.358 348.189 122.36Z" fill="#D9E6BA"/>
<path d="M287.248 83.1619C294.565 83.1619 300.496 77.2129 300.496 69.8744C300.496 62.5359 294.565 56.5869 287.248 56.5869C279.931 56.5869 274 62.5359 274 69.8744C274 77.2129 279.931 83.1619 287.248 83.1619Z" fill="#D9E6BA"/>
<path d="M287.241 77.9679C291.698 77.9679 295.311 74.3444 295.311 69.8746C295.311 65.4048 291.698 61.7812 287.241 61.7812C282.785 61.7812 279.172 65.4048 279.172 69.8746C279.172 74.3444 282.785 77.9679 287.241 77.9679Z" fill="white"/>
</g>
<defs>
<clipPath id="clip0_1724_365">
<rect width="429" height="420" fill="white"/>
</clipPath>
</defs>
</svg>
