<svg width="36" height="44" viewBox="0 0 36 44" fill="none" xmlns="http://www.w3.org/2000/svg">
<path d="M25.8667 29.0667V42C25.8667 43.0667 24.6667 43.6 23.8667 42.9333L19.3333 39.2C19.3333 39.2 19.2 39.2 19.2 39.0667C18.8 38.8 18.4 38.6667 18 38.6667C17.4667 38.6667 17.0667 38.8 16.6667 39.2L12.1333 43.0667C11.3333 43.7333 10.1333 43.2 10.1333 42.1333V29.2H25.8667V29.0667Z" fill="#F45170"/>
<path d="M25.8667 29.0667V42C25.8667 43.0667 24.6667 43.6 23.8667 42.9333L19.3333 39.2C19.3333 39.2 19.2 39.2 19.2 39.0667C18.8 38.8 18.4 38.6667 18 38.6667V29.0667H25.8667Z" fill="#E93565"/>
<path d="M25.8667 32.1333V34.1333C24.6667 34.4 23.2 34 22.1333 34.2667C20.8 34.6667 19.4667 36.1333 18 36.1333C16.5333 36.1333 15.2 34.6667 13.8667 34.2667C12.6667 34 11.2 34.4 10.1333 34.1333V32.1333H25.8667Z" fill="#CC104A"/>
<path d="M33.3333 22C32.9333 23.4667 33.6 25.2 32.9333 26.5333C32.1333 27.8667 30.2667 28.1333 29.2 29.2C28.1333 30.2667 27.8667 32.1333 26.5333 32.9333C25.3333 33.6 23.4667 32.9333 22 33.3333C20.6667 33.7333 19.3333 35.2 17.8667 35.2C16.4 35.2 15.0667 33.7333 13.7333 33.3333C12.2667 32.9333 10.5333 33.6 9.2 32.9333C8 32.2667 7.6 30.2667 6.53333 29.2C5.46667 28.1333 3.6 27.8667 2.8 26.5333C2.13333 25.3333 2.8 23.4667 2.4 22C2 20.6667 0.533333 19.3333 0.533333 17.8667C0.533333 16.4 2 15.0667 2.4 13.7333C2.8 12.2667 2.13333 10.5333 2.8 9.20001C3.46667 8.00001 5.46667 7.60001 6.53333 6.53334C7.6 5.46667 7.86666 3.60001 9.2 2.80001C10.4 2.13334 12.2667 2.80001 13.7333 2.40001C15.0667 2.00001 16.4 0.53334 17.8667 0.53334C19.3333 0.53334 20.6667 2.00001 22 2.40001C23.4667 2.80001 25.2 2.13334 26.5333 2.80001C27.7333 3.46667 28.1333 5.46667 29.2 6.53334C30.2667 7.60001 32.1333 7.86667 32.9333 9.20001C33.6 10.4 32.9333 12.2667 33.3333 13.7333C33.7333 15.0667 35.2 16.4 35.2 17.8667C35.2 19.3333 33.7333 20.6667 33.3333 22Z" fill="#F9BE48"/>
<path opacity="0.4" d="M30.9333 17.8667C30.9333 24.9333 25.2 30.8 18 30.8C10.9333 30.8 5.06667 25.0667 5.06667 17.8667C5.06667 10.8 10.8 4.93334 18 4.93334C25.0667 4.93334 30.9333 10.8 30.9333 17.8667Z" fill="white"/>
<path d="M29.6 17.8667C29.6 24.2667 24.4 29.4667 18 29.4667C11.6 29.4667 6.4 24.2667 6.4 17.8667C6.4 11.4667 11.6 6.26667 18 6.26667C24.4 6.26667 29.6 11.4667 29.6 17.8667Z" fill="#F3A250"/>
<path d="M29.6 18.6667C29.2 12.5333 24.1333 7.73334 18 7.73334C11.8667 7.73334 6.8 12.5333 6.4 18.6667C6 11.7333 11.6 6.13334 18 6.26668C24.5333 6.40001 30 11.6 29.6 18.6667Z" fill="#EF7B56"/>
<path d="M21.7333 19.6L22.4 23.7333C22.5333 24.4 21.8667 24.8 21.3333 24.5333L17.7333 22.6667C17.4667 22.5333 17.2 22.5333 17.0667 22.6667L13.4667 24.5333C12.9333 24.8 12.2667 24.4 12.4 23.7333L13.0667 19.6C13.0667 19.3333 13.0667 19.0667 12.8 18.9333L9.86667 16C9.46667 15.6 9.6 14.8 10.2667 14.6667L14.4 14C14.6667 14 14.8 13.8667 14.9333 13.6L16.6667 10.1333C16.9333 9.6 17.7333 9.6 18 10.1333L19.8667 13.8667C20 14.1333 20.1333 14.2667 20.4 14.2667L24.5333 14.9333C25.2 15.0667 25.4667 15.7333 24.9333 16.2667L22 18.9333C21.8667 19.2 21.7333 19.3333 21.7333 19.6Z" fill="#EF7B56"/>
<path d="M22.4 20.2667L23.0667 24.4C23.2 25.0667 22.5333 25.4667 22 25.2L18.4 23.3333C18.1333 23.2 17.8667 23.2 17.7333 23.3333L14 25.2C13.4667 25.4667 12.8 25.0667 12.9333 24.4L13.6 20.2667C13.6 20 13.6 19.7333 13.3333 19.6L10.4 16.6667C10 16.2667 10.1333 15.4667 10.8 15.3333L14.9333 14.6667C15.2 14.6667 15.3333 14.5333 15.4667 14.2667L17.3333 10.5333C17.6 10 18.4 10 18.6667 10.5333L20.5333 14.2667C20.6667 14.5333 20.8 14.6667 21.0667 14.6667L25.2 15.3333C25.8667 15.4667 26.1333 16.1333 25.6 16.6667L22.6667 19.6C22.4 19.7333 22.4 20 22.4 20.2667Z" fill="#F9CF6B"/>
<path opacity="0.5" d="M11.2 16.8C10.8 16.4 11.0667 15.7333 11.6 15.6L15.2 15.0667C15.4667 15.0667 15.6 14.9333 15.7333 14.6667L17.3333 11.3333C17.6 10.8 18.2667 10.8 18.5333 11.3333L20.1333 14.6667C20.2667 14.9333 20.4 15.0667 20.6667 15.0667L24.2667 15.6C24.8 15.7333 25.0667 16.4 24.6667 16.8C24.6667 16.8 22.4 19.3333 17.7333 19.3333C14.2667 19.3333 11.2 16.8 11.2 16.8Z" fill="white"/>
<path opacity="0.7" d="M16.9333 14.9333C16.2667 14.6667 17.3333 11.8667 18 12.1333C18.4 12.2667 17.7333 15.2 16.9333 14.9333Z" fill="white"/>
<path d="M12.1333 9.33334C11.7333 9.33334 11.4667 9.60001 11.2 9.86668C11.3333 10 12.6667 11.0667 12.5333 11.2C12.4 11.3333 11.0667 10.4 10.9333 10.2667C10.8 10.5333 10.6667 10.9333 10.8 11.2C11.2 14.5333 10.6667 14.6667 10 11.3333C9.86667 10.9333 9.73333 10.6667 9.46667 10.4C9.33333 10.5333 8.26667 11.8667 8.13333 11.7333C8 11.6 8.93333 10.2667 9.06667 10.1333C8.8 10 8.4 10 8.13333 10C4.66667 10.2667 4.53333 9.86668 8 9.20001C8.4 9.06668 8.66667 8.93334 8.93333 8.66668L8.8 8.53334C6.93333 7.06668 7.2 6.93334 9.06667 8.13334H9.2C9.33333 7.86668 9.46667 7.46668 9.33333 7.20001C8.93333 3.73334 9.46667 3.73334 10.1333 7.06668C10.1333 7.46668 10.4 7.73334 10.6667 8.00001L10.8 7.86668C12.2667 6.00001 12.4 6.26668 11.2 8.13334V8.26668C11.3333 8.53334 11.7333 8.66668 12 8.66668C15.4667 8.26668 15.4667 8.66668 12.1333 9.33334Z" fill="white"/>
<path opacity="0.5" d="M12.1333 38.1333C12.1333 40 12 40.1333 11.7333 40.1333C11.6 40.1333 11.3333 40 11.3333 38.1333C11.3333 36.2667 11.4667 35.7333 11.7333 35.7333C12 35.7333 12.1333 36.2667 12.1333 38.1333Z" fill="white"/>
</svg>
