<svg width="42" height="48" viewBox="0 0 42 48" fill="none" xmlns="http://www.w3.org/2000/svg">
<path d="M37.1895 31.4801H30.4864C29.3566 31.4753 28.2611 31.8682 27.392 32.5901L27.3889 32.5923C26.896 32.4867 26.3935 32.4333 25.8894 32.4329H16.1107C15.6065 32.4333 15.1037 32.4867 14.6107 32.5923L14.6083 32.5901C13.739 31.8686 12.6436 31.4757 11.5139 31.4801H4.81078C2.26594 31.4801 0.184032 33.4131 0.184032 35.7739V41.6378H9.36441V47.25H32.6359V41.6378H41.8162V35.7739C41.8162 33.4131 39.7343 31.4801 37.1895 31.4801Z" fill="#6193FF"/>
<path d="M21 17.7787C21.8264 17.7787 22.6448 17.9416 23.4083 18.258C24.1717 18.5744 24.8654 19.0381 25.4497 19.6226C26.0339 20.2071 26.4973 20.901 26.8134 21.6646C27.1294 22.4282 27.2919 23.2466 27.2917 24.073C27.2917 27.7574 25.291 32.4331 21 32.4331C16.5763 32.4331 14.7083 27.5465 14.7083 24.073C14.7081 23.2466 14.8706 22.4282 15.1866 21.6646C15.5027 20.901 15.9661 20.2071 16.5503 19.6226C17.1346 19.0381 17.8283 18.5744 18.5917 18.258C19.3552 17.9416 20.1736 17.7787 21 17.7787Z" fill="#FFD886"/>
<path d="M18.8349 32.4331H16.1107C12.399 32.4331 9.36412 35.2541 9.36412 38.6977V47.25H12.0884V38.6977C12.0884 35.2541 15.1232 32.4331 18.8349 32.4331Z" fill="#518BF2"/>
<path d="M33.8378 21.4335C34.9823 21.4338 36.0797 21.8885 36.8889 22.6978C37.6982 23.507 38.1529 24.6044 38.1532 25.7488C38.1532 28.2747 36.7807 31.4801 33.8378 31.4801C30.8058 31.4801 29.5253 28.1313 29.5253 25.7488C29.525 24.6047 29.9792 23.5074 30.7879 22.6981C31.5967 21.8888 32.6937 21.4339 33.8378 21.4335ZM8.16216 21.4335C7.01775 21.4338 5.92029 21.8885 5.11107 22.6978C4.30184 23.507 3.84707 24.6044 3.84675 25.7488C3.84675 28.2747 5.21934 31.4801 8.16216 31.4801C11.1942 31.4801 12.4747 28.1313 12.4747 25.7488C12.475 24.6047 12.0208 23.5074 11.2121 22.6981C10.4033 21.8888 9.30625 21.4339 8.16216 21.4335Z" fill="#FFD886"/>
<path d="M30.9343 25.7488C30.9343 24.7269 31.2969 23.7381 31.9577 22.9586C32.6184 22.179 33.5344 21.6592 34.5425 21.4917C33.9247 21.3892 33.292 21.4224 32.6883 21.5892C32.0847 21.7559 31.5246 22.0522 31.0471 22.4574C30.5696 22.8625 30.1861 23.3669 29.9232 23.9353C29.6604 24.5037 29.5246 25.1226 29.5252 25.7488C29.5252 28.1313 30.8058 31.4801 33.8377 31.4801C34.0736 31.48 34.309 31.4577 34.5408 31.4136C32.0156 30.9382 30.9343 27.9369 30.9343 25.7488ZM5.25581 25.7488C5.25628 24.7266 5.61943 23.7378 6.28063 22.9582C6.94183 22.1787 7.85818 21.659 8.86659 21.4917C8.24867 21.3892 7.61583 21.4224 7.01206 21.5891C6.40828 21.7559 5.84807 22.0521 5.37035 22.4572C4.89263 22.8624 4.50888 23.3667 4.24576 23.9351C3.98265 24.5035 3.84649 25.1224 3.84675 25.7488C3.84675 28.2747 5.21934 31.4801 8.16216 31.4801C8.39903 31.48 8.63537 31.4577 8.86809 31.4136C6.40987 30.948 5.25581 28.064 5.25581 25.7488Z" fill="#F7C979"/>
<path d="M19.6057 22.1319C22.4887 24.3895 24.5569 24.7851 27.2475 25.0341C27.2768 24.7089 27.2917 24.3872 27.2917 24.073C27.2917 23.2468 27.1289 22.4287 26.8127 21.6653C26.4965 20.902 26.0331 20.2084 25.4489 19.6242C24.8646 19.0399 24.1711 18.5765 23.4077 18.2603C22.6444 17.9441 21.8262 17.7814 21 17.7814C20.1738 17.7814 19.3556 17.9441 18.5923 18.2603C17.8289 18.5765 17.1354 19.0399 16.5511 19.6242C15.9669 20.2084 15.5035 20.902 15.1873 21.6653C14.8711 22.4287 14.7083 23.2468 14.7083 24.073C14.7083 24.3942 14.7244 24.7275 14.7569 25.0678L19.6057 22.1319Z" fill="#784132"/>
<path d="M16.681 24.073C16.681 24.0152 16.6834 23.9579 16.685 23.9004L14.7568 25.0678C15.0756 28.4083 16.9853 32.4331 21 32.4331C21.3294 32.4336 21.6581 32.4047 21.9823 32.3467C18.2685 31.6781 16.681 27.2751 16.681 24.073Z" fill="#F7C979"/>
<path d="M16.685 23.9004C16.7247 22.4328 17.2765 21.0252 18.2446 19.9214C19.2127 18.8176 20.5364 18.087 21.9863 17.8562C21.0877 17.7138 20.1689 17.768 19.2933 18.0149C18.4176 18.2619 17.6059 18.6958 16.9141 19.2867C16.2223 19.8777 15.6669 20.6116 15.2861 21.4379C14.9053 22.2642 14.7082 23.1632 14.7083 24.073C14.7083 24.3942 14.7244 24.7275 14.7568 25.0678L16.685 23.9004Z" fill="#753B2E"/>
<path d="M15.5167 47.25V41.7759C15.5167 41.5766 15.4375 41.3855 15.2965 41.2446C15.1556 41.1036 14.9645 41.0244 14.7652 41.0244C14.5658 41.0244 14.3747 41.1036 14.2338 41.2446C14.0928 41.3855 14.0137 41.5766 14.0137 41.7759V47.25H15.5167ZM27.9863 47.25V41.7759C27.9863 41.5766 27.9072 41.3855 27.7662 41.2446C27.6253 41.1036 27.4342 41.0244 27.2348 41.0244C27.0355 41.0244 26.8444 41.1036 26.7035 41.2446C26.5625 41.3855 26.4833 41.5766 26.4833 41.7759V47.25H27.9863Z" fill="#518BF2"/>
<path d="M28.2367 6.01003C28.2737 6.12391 28.2789 6.24571 28.2517 6.36232C28.2246 6.47892 28.1661 6.5859 28.0826 6.67172L25.1327 9.70463L25.7362 13.8919C25.7534 14.0104 25.7378 14.1314 25.6912 14.2417C25.6446 14.352 25.5687 14.4475 25.4718 14.5179C25.3749 14.5883 25.2607 14.6309 25.1413 14.6411C25.022 14.6513 24.9022 14.6287 24.7947 14.5758L21 12.7073L17.2025 14.5759C17.095 14.6288 16.9751 14.6513 16.8558 14.641C16.7365 14.6308 16.6222 14.5882 16.5253 14.5177C16.4285 14.4473 16.3527 14.3517 16.3061 14.2414C16.2596 14.131 16.244 14.01 16.2612 13.8915L16.8672 9.70444L13.9175 6.67163C13.8341 6.5858 13.7757 6.47886 13.7486 6.36231C13.7215 6.24576 13.7267 6.12403 13.7637 6.01022C13.8006 5.89641 13.8679 5.79484 13.9583 5.71646C14.0487 5.63807 14.1588 5.58583 14.2767 5.56537L18.444 4.8435L20.4188 1.10091C20.4745 0.995072 20.5582 0.906465 20.6606 0.844631C20.763 0.782796 20.8804 0.750078 21 0.75C21.1197 0.750126 21.237 0.782895 21.3395 0.844778C21.4419 0.906661 21.5255 0.995314 21.5813 1.10119L23.5529 4.84331L27.7227 5.56519C27.8408 5.58549 27.9511 5.63766 28.0417 5.71606C28.1322 5.79445 28.1997 5.8961 28.2367 6.01003ZM10.6703 7.78781L7.78603 7.28794L6.41813 4.69847C6.36227 4.59271 6.27864 4.50419 6.17622 4.44242C6.0738 4.38066 5.95648 4.34799 5.83688 4.34794C5.71723 4.34804 5.59988 4.38079 5.49746 4.44264C5.39503 4.50448 5.31142 4.5931 5.25563 4.69894L3.8895 7.28794L1.00313 7.78781C0.885134 7.80823 0.774956 7.86047 0.684476 7.93891C0.593997 8.01735 0.526649 8.119 0.489698 8.2329C0.452747 8.3468 0.447596 8.46863 0.474799 8.58524C0.502002 8.70186 0.560528 8.80883 0.644063 8.89462L2.68697 10.9936L2.27006 13.8921C2.253 14.0106 2.26864 14.1316 2.31529 14.2419C2.36193 14.3522 2.43782 14.4477 2.53475 14.5181C2.63169 14.5884 2.746 14.631 2.86534 14.6411C2.98469 14.6513 3.10454 14.6287 3.21197 14.5757L5.83697 13.2819L8.46469 14.5763C8.57211 14.6291 8.69194 14.6517 8.81125 14.6415C8.93056 14.6313 9.04483 14.5888 9.14173 14.5184C9.23862 14.448 9.31447 14.3526 9.3611 14.2423C9.40773 14.132 9.42336 14.0111 9.40631 13.8925L8.98941 10.9938L11.0297 8.89434C11.113 8.8085 11.1714 8.70155 11.1985 8.585C11.2256 8.46846 11.2203 8.34673 11.1834 8.23294C11.1464 8.11914 11.0791 8.01758 10.9887 7.9392C10.8983 7.86081 10.7882 7.80857 10.6703 7.78809V7.78781ZM41.5105 8.23284C41.4736 8.11892 41.4062 8.01726 41.3156 7.93883C41.2251 7.86041 41.1149 7.80819 40.9969 7.78781L38.1099 7.28784L36.7421 4.69847C36.6863 4.59272 36.6026 4.50421 36.5002 4.44245C36.3978 4.38069 36.2805 4.34801 36.1609 4.34794C36.0412 4.34806 35.9239 4.3808 35.8215 4.44265C35.719 4.5045 35.6354 4.59311 35.5796 4.69894L34.2137 7.28794L31.327 7.78781C31.2091 7.80825 31.0989 7.8605 31.0084 7.93893C30.9179 8.01737 30.8506 8.11901 30.8136 8.2329C30.7767 8.34679 30.7715 8.46861 30.7987 8.58522C30.8259 8.70183 30.8844 8.80881 30.9679 8.89462L33.0108 10.9936L32.594 13.8921C32.5769 14.0106 32.5925 14.1316 32.6391 14.2419C32.6858 14.3522 32.7616 14.4477 32.8586 14.5181C32.9555 14.5884 33.0698 14.631 33.1892 14.6411C33.3085 14.6513 33.4284 14.6287 33.5358 14.5757L36.1608 13.2819L38.7884 14.5763C38.8958 14.6292 39.0157 14.6518 39.135 14.6416C39.2543 14.6314 39.3686 14.5889 39.4655 14.5185C39.5624 14.4481 39.6383 14.3526 39.6849 14.2423C39.7315 14.132 39.7471 14.0111 39.73 13.8925L39.3132 10.9941L41.3561 8.89509C41.4397 8.80924 41.4983 8.70217 41.5255 8.58546C41.5527 8.46875 41.5475 8.34683 41.5105 8.23284Z" fill="#FFAB1E"/>
<path d="M9.36412 41.6378H0.18375V35.7739C0.18375 33.4131 2.26566 31.4801 4.8105 31.4801H11.5136C12.6434 31.4757 13.7387 31.8686 14.608 32.5901L14.6104 32.5923C11.6152 33.2304 9.36403 35.7323 9.36403 38.6977L9.36412 41.6378ZM37.1891 31.4801H30.486C29.3562 31.4753 28.2607 31.8682 27.3916 32.5901L27.3885 32.5923C30.3824 33.2305 32.6356 35.7323 32.6356 38.6977V41.6378H41.8162V35.7739C41.8162 33.4131 39.7343 31.4801 37.1895 31.4801H37.1891Z" fill="#6464FF"/>
<path d="M34.8823 41.6378V38.6977C34.8823 35.2541 31.8448 32.4331 28.1358 32.4331H27.5914C27.5235 32.4839 27.4566 32.5362 27.3919 32.5901L27.3888 32.5923C30.3827 33.2305 32.6359 35.7323 32.6359 38.6977V41.6378H34.8823ZM14.6081 32.5901C14.5434 32.5359 14.4769 32.4839 14.4085 32.4331H13.9003C10.1887 32.4331 7.15378 35.2541 7.15378 38.6977V41.6378H9.36413V38.6977C9.36413 35.7323 11.6153 33.2304 14.6105 32.5923L14.6081 32.5901Z" fill="#5E5EF7"/>
<path d="M5.83659 4.34794C5.71695 4.34804 5.5996 4.38079 5.49717 4.44264C5.39475 4.50448 5.31114 4.5931 5.25534 4.69894L3.8895 7.28794L1.00313 7.78781C0.885134 7.80823 0.774956 7.86047 0.684476 7.93891C0.593997 8.01735 0.526649 8.119 0.489698 8.2329C0.452747 8.3468 0.447596 8.46863 0.474799 8.58524C0.502002 8.70186 0.560528 8.80883 0.644063 8.89462L2.68697 10.9936L2.27006 13.8922C2.25304 14.0107 2.2687 14.1316 2.31535 14.242C2.36201 14.3523 2.43789 14.4477 2.53482 14.5181C2.63174 14.5884 2.74603 14.631 2.86536 14.6411C2.98469 14.6513 3.10454 14.6287 3.21197 14.5758L5.83697 13.2816L5.83659 4.34794ZM21 0.75C20.8803 0.749993 20.7628 0.782671 20.6603 0.84451C20.5578 0.906348 20.4741 0.995001 20.4183 1.10091L18.4439 4.84331L14.2766 5.56519C14.1587 5.58565 14.0486 5.63788 13.9582 5.71627C13.8678 5.79466 13.8005 5.89622 13.7636 6.01003C13.7266 6.12384 13.7214 6.24557 13.7485 6.36212C13.7756 6.47867 13.834 6.58562 13.9174 6.67144L16.8671 9.70434L16.2611 13.8913C16.2439 14.0098 16.2595 14.1308 16.306 14.2412C16.3526 14.3515 16.4284 14.4471 16.5252 14.5175C16.6221 14.588 16.7364 14.6306 16.8557 14.6409C16.975 14.6511 17.0949 14.6286 17.2024 14.5757L21 12.7073V0.75ZM36.1621 4.34803H36.1605C36.0409 4.34815 35.9235 4.38089 35.8211 4.44274C35.7187 4.50459 35.6351 4.5932 35.5793 4.69903L34.2137 7.28794L31.327 7.78781C31.2091 7.80825 31.0989 7.8605 31.0084 7.93893C30.9179 8.01737 30.8506 8.11901 30.8136 8.2329C30.7767 8.34679 30.7715 8.46861 30.7987 8.58522C30.8259 8.70183 30.8844 8.80881 30.9679 8.89462L33.0108 10.9936L32.594 13.8922C32.5769 14.0107 32.5926 14.1316 32.6392 14.242C32.6858 14.3523 32.7617 14.4477 32.8586 14.5181C32.9556 14.5884 33.0699 14.631 33.1892 14.6412C33.3085 14.6513 33.4284 14.6287 33.5358 14.5758L36.1608 13.2815L36.162 13.2821L36.1621 4.34803Z" fill="#F49B19"/>
</svg>
