<svg width="48" height="30" viewBox="0 0 48 30" fill="none" xmlns="http://www.w3.org/2000/svg">
<path d="M39.2115 14.3533L37.9922 4.44839L35.7073 4.72964L35.7083 4.72804L31.2786 2.23515C30.8061 1.96927 30.2638 1.85358 29.724 1.90346L22.7297 2.55033C22.3059 2.58952 21.8977 2.72947 21.539 2.95852C21.1803 3.18757 20.8816 3.49908 20.6678 3.86705L15.7381 12.3521C15.3741 12.9787 15.6598 13.7822 16.3377 14.0382L16.5394 14.1143C16.9273 14.2609 17.326 14.3457 17.7246 14.3789L17.0999 14.9229L15.8502 16.0117L12.2959 19.0436C11.6632 19.5948 11.5975 20.5538 12.1486 21.1865L12.5092 21.5995C13.217 22.4112 14.449 22.4955 15.2621 21.7875L16.6206 23.3456C17.0622 23.8528 17.7093 24.0771 18.3309 24.0006C18.7175 23.9532 19.0807 23.7904 19.3734 23.5336L20.7304 25.0918C21.1736 25.6003 21.8206 25.8231 22.4422 25.7466C22.8286 25.6996 23.192 25.5374 23.4849 25.2811L24.2224 25.9184C24.9303 26.7315 26.1637 26.8156 26.9769 26.1076L27.9794 25.233L36.4071 18.6694L36.4162 18.661L39.7413 18.6577L39.2115 14.3533Z" fill="#F29F5C"/>
<path d="M35.5996 16.1092L35.5905 16.1176L27.1628 22.6812L26.1603 23.5558C25.3473 24.2638 24.1138 24.1797 23.4058 23.3666L22.6684 22.7293C22.3754 22.9856 22.0121 23.1479 21.6257 23.1948C21.004 23.2713 20.3571 23.0485 19.9138 22.54L18.5569 20.9818C18.2641 21.2385 17.9009 21.4013 17.5144 21.4488C16.8927 21.5253 16.2457 21.3011 15.804 20.7938L14.4456 19.2357C13.7494 19.8419 12.747 19.8655 12.0286 19.3507C11.6602 19.9063 11.6896 20.6593 12.1489 21.1865L12.5095 21.5995C13.2173 22.4112 14.4492 22.4955 15.2624 21.7875L16.6208 23.3456C17.0625 23.8528 17.7096 24.0771 18.3312 24.0006C18.7177 23.9531 19.081 23.7904 19.3737 23.5336L20.7306 25.0919C21.1739 25.6004 21.8209 25.8232 22.4425 25.7467C22.8289 25.6997 23.1922 25.5375 23.4852 25.2811L24.2226 25.9185C24.9306 26.7315 26.164 26.8156 26.9772 26.1076L27.9796 25.2331L36.4074 18.6695L36.4165 18.6611L39.7416 18.6578L39.3737 15.6695L35.5996 16.1092Z" fill="#D37D42"/>
<path d="M37.1343 20.3936L32.6189 16.5002L31.3632 15.4183L30.4647 14.6445L26.6015 11.3145L27.0477 7.51672C27.1986 6.23226 26.39 5.02973 25.1435 4.68482L16.7225 2.35468C16.2902 2.23508 15.83 2.26822 15.4193 2.44852C15.0087 2.62882 14.6728 2.94523 14.4683 3.34439L13.4093 5.41157L8.86355 5.10304L7.69918 15.0146L7.19312 19.322L11.6179 19.6162L11.6271 19.6246L20.871 27.5926L21.8783 28.4617C22.6954 29.1652 23.9283 29.0743 24.6318 28.2572L25.9799 26.6929C26.2743 26.9477 26.6385 27.1079 27.0252 27.1528C27.6472 27.2259 28.293 26.9994 28.7334 26.4885L30.0817 24.9227C30.3759 25.1779 30.7401 25.3386 31.1268 25.384C31.7489 25.4571 32.3947 25.2292 32.8335 24.7195L34.1833 23.1539C35.0003 23.8574 36.2318 23.7662 36.9351 22.9506L37.2934 22.5356C37.8411 21.9 37.77 20.9413 37.1343 20.3936Z" fill="#F9C295"/>
<path d="M37.1344 20.3936L35.759 19.2077C36.206 19.8005 36.1968 20.6437 35.6923 21.2293L35.312 21.6698C34.5654 22.5356 33.2581 22.6324 32.3907 21.8855L30.9579 23.5475C30.492 24.0886 29.8064 24.3305 29.146 24.2529C28.7355 24.2048 28.3489 24.0341 28.0366 23.7633L26.6052 25.4255C26.1377 25.9678 25.4523 26.2082 24.7919 26.1306C24.3814 26.083 23.9948 25.9129 23.6823 25.6425L22.2511 27.3032C21.9918 27.6046 21.6508 27.8245 21.2692 27.9362L21.8784 28.4618C22.6955 29.1653 23.9284 29.0744 24.6319 28.2574L25.98 26.693C26.2744 26.9478 26.6386 27.108 27.0253 27.1529C27.6474 27.2259 28.2931 26.9995 28.7335 26.4886L30.0819 24.9229C30.376 25.178 30.7402 25.3387 31.127 25.3841C31.749 25.4572 32.3949 25.2293 32.8337 24.7196L34.1834 23.154C35.0004 23.8575 36.2319 23.7664 36.9353 22.9507L37.2936 22.5357C37.8412 21.9 37.7701 20.9413 37.1344 20.3936Z" fill="#E59F6A"/>
<path d="M34.6405 22.6326L32.1663 20.4993C32.0246 20.3806 31.842 20.3225 31.6578 20.3374C31.4736 20.3524 31.3028 20.4392 31.1821 20.5792C31.0615 20.7191 31.0007 20.9009 31.0131 21.0853C31.0254 21.2696 31.1098 21.4417 31.248 21.5644L33.7178 23.694L34.1834 23.154C34.3637 23.3088 34.5709 23.4292 34.7946 23.5094C34.874 23.3679 34.9019 23.2033 34.8739 23.0435C34.8458 22.8838 34.7633 22.7386 34.6405 22.6326ZM30.6845 25.2774C30.854 24.9901 30.7997 24.6142 30.5381 24.3887L28.3155 22.4723C28.1738 22.3537 27.9912 22.2955 27.807 22.3105C27.6229 22.3254 27.452 22.4123 27.3313 22.5522C27.2107 22.6922 27.1499 22.874 27.1623 23.0583C27.1746 23.2427 27.259 23.4148 27.3972 23.5374L29.6198 25.4538L29.6226 25.4559L30.0818 24.9227C30.2596 25.0764 30.4638 25.1966 30.6845 25.2774Z" fill="#E59F6A"/>
<path d="M11.8485 19.6063L11.3129 20.3135C10.7297 21.0837 10.8812 22.1809 11.6514 22.7642C12.4215 23.3474 13.5187 23.1959 14.102 22.4257L14.6376 21.7185C15.2208 20.9483 15.0693 19.8512 14.2992 19.2679C13.529 18.6846 12.4318 18.8361 11.8485 19.6063ZM15.1107 21.0938L14.102 22.4257C13.5188 23.1959 13.6703 24.293 14.4404 24.8764C15.2106 25.4596 16.3078 25.3081 16.8911 24.5379L17.8997 23.206C18.4829 22.4359 18.3314 21.3387 17.5613 20.7554C16.791 20.1722 15.6939 20.3237 15.1107 21.0938Z" fill="#F29F5C"/>
<path d="M18.2656 22.7227L16.8909 24.5379C16.3077 25.3081 16.4592 26.4052 17.2294 26.9885C17.9995 27.5718 19.0967 27.4203 19.68 26.6501L21.0547 24.8349C21.6379 24.0648 21.4864 22.9676 20.7162 22.3843C19.9461 21.801 18.8489 21.9526 18.2656 22.7227Z" fill="#F29F5C"/>
<path d="M21.1344 24.7295L19.68 26.65C19.0968 27.4201 19.2483 28.5173 20.0184 29.1006C20.7886 29.6838 21.8857 29.5323 22.469 28.7622L23.9235 26.8417C24.5067 26.0716 24.3552 24.9744 23.585 24.3911C22.8148 23.8079 21.7176 23.9594 21.1344 24.7295ZM35.7083 4.72804L31.2786 2.23515C30.8061 1.96927 30.2638 1.85358 29.724 1.90346L22.7297 2.55033C22.3059 2.58952 21.8977 2.72947 21.539 2.95852C21.1803 3.18757 20.8816 3.49908 20.6678 3.86705L15.7381 12.3521C15.3741 12.9788 15.6598 13.7822 16.3377 14.0382L16.5394 14.1143C18.3464 14.7968 20.3871 14.2161 21.564 12.6845L23.4528 10.2264C23.4528 10.2264 27.993 15.4832 32.9917 9.34418" fill="#F29F5C"/>
<path d="M47.9947 19.9823L45.6778 1.1619C45.6666 1.07026 45.6373 0.981731 45.5919 0.901381C45.5464 0.82103 45.4855 0.750427 45.4127 0.693605C45.3399 0.636783 45.2567 0.594854 45.1677 0.570213C45.0787 0.545572 44.9857 0.538701 44.8941 0.549993L39.4765 1.21693C38.0694 1.39018 37.0656 2.67587 37.2388 4.08287L39.0992 19.1954C39.2593 20.4963 40.3704 21.4525 41.6492 21.4525C41.7535 21.4525 41.8591 21.4461 41.9651 21.4331L47.3828 20.7662C47.5678 20.7433 47.7363 20.6479 47.851 20.5009C47.9658 20.3539 48.0174 20.1674 47.9947 19.9823Z" fill="#5C9CEE"/>
<path d="M47.9947 19.9822L47.7403 17.9164C47.6815 18.0032 47.6048 18.0764 47.5154 18.1311C47.4259 18.1858 47.3258 18.2207 47.2217 18.2335L41.5426 18.9326C41.4327 18.9462 41.3221 18.9529 41.2114 18.953C40.2551 18.953 39.3888 18.4428 38.9095 17.6555L39.0991 19.1952C39.2592 20.4962 40.3703 21.4523 41.6491 21.4523C41.7534 21.4523 41.859 21.446 41.965 21.4329L47.3827 20.766C47.4743 20.7547 47.5628 20.7255 47.6432 20.68C47.7236 20.6345 47.7942 20.5736 47.851 20.5009C47.9078 20.4281 47.9498 20.3448 47.9744 20.2558C47.9991 20.1669 48.006 20.0739 47.9947 19.9822Z" fill="#3580D3"/>
<path d="M8.52355 1.21684L3.10592 0.5499C3.01428 0.538583 2.9213 0.545435 2.83231 0.570066C2.74331 0.594697 2.66004 0.636624 2.58725 0.693451C2.51447 0.750277 2.4536 0.82089 2.40811 0.901253C2.36263 0.981616 2.33343 1.07015 2.32217 1.16181L0.00533034 19.9823C-0.0174502 20.1674 0.034219 20.3539 0.148972 20.5009C0.263726 20.6479 0.432164 20.7433 0.617237 20.7661L6.03486 21.433C6.14099 21.446 6.24646 21.4524 6.3508 21.4524C7.62955 21.4524 8.74067 20.4962 8.9008 19.1953L10.7612 4.08278C10.9344 2.67578 9.93064 1.39009 8.52355 1.21684Z" fill="#ED5575"/>
<path d="M0.00532634 19.9822L0.25967 17.9164C0.31847 18.0032 0.395176 18.0764 0.484632 18.1311C0.574088 18.1858 0.67422 18.2207 0.778295 18.2335L6.45739 18.9326C6.56858 18.9463 6.67929 18.953 6.78861 18.953C7.74486 18.953 8.6112 18.4428 9.09045 17.6555L8.90089 19.1952C8.74076 20.4962 7.62973 21.4523 6.35089 21.4523C6.24664 21.4523 6.14098 21.446 6.03495 21.4329L0.617326 20.766C0.525679 20.7547 0.437151 20.7255 0.356795 20.68C0.27644 20.6345 0.205832 20.5736 0.149002 20.5009C0.0921722 20.4281 0.050234 20.3448 0.0255821 20.2558C0.000930138 20.1669 -0.00595277 20.0739 0.00532634 19.9822Z" fill="#CC3A60"/>
<path d="M43.4998 18.3279C44.2505 18.3279 44.859 17.7194 44.859 16.9687C44.859 16.2181 44.2505 15.6096 43.4998 15.6096C42.7492 15.6096 42.1406 16.2181 42.1406 16.9687C42.1406 17.7194 42.7492 18.3279 43.4998 18.3279Z" fill="#EBEEF2"/>
<path d="M4.42404 18.3279C5.1747 18.3279 5.78322 17.7194 5.78322 16.9687C5.78322 16.2181 5.1747 15.6096 4.42404 15.6096C3.67338 15.6096 3.06485 16.2181 3.06485 16.9687C3.06485 17.7194 3.67338 18.3279 4.42404 18.3279Z" fill="#EBEEF2"/>
</svg>
