<svg width="48" height="48" viewBox="0 0 48 48" fill="none" xmlns="http://www.w3.org/2000/svg">
<path d="M28.5493 47.493H19.4513C18.5679 47.493 17.8517 46.7768 17.8517 45.8934V36.5381H30.1487V45.8934C30.1489 46.7769 29.4327 47.493 28.5493 47.493Z" fill="#84C9FE"/>
<path d="M27.2177 36.5381V44.7509C27.2177 46.2653 25.99 47.493 24.4756 47.493H28.5495C29.4329 47.493 30.1491 46.7768 30.1491 45.8934V36.5381H27.2177Z" fill="#70B9E5"/>
<path d="M17.9757 37.7384H30.0112C31.0143 37.7384 31.8846 37.0527 32.1266 36.0791C32.7389 33.6175 33.6864 31.2516 34.9424 29.0478C35.9881 27.2128 36.5854 25.0895 36.5854 22.8264C36.5854 15.8163 30.8537 10.1448 23.8211 10.2428C17.0128 10.3375 11.4692 15.9168 11.4158 22.7255C11.398 25.0004 11.9837 27.1369 13.0226 28.9847C14.283 31.2265 15.2413 33.6138 15.8619 36.0851C16.1055 37.0558 16.9749 37.7384 17.9757 37.7384Z" fill="#FEE570"/>
<path d="M23.821 10.2427C23.3878 10.2488 22.9598 10.2772 22.5379 10.3266C28.7964 11.0541 33.6541 16.3728 33.6541 22.8265C33.6541 25.0896 33.0567 27.2131 32.0111 29.0479C30.7551 31.2517 29.8076 33.6176 29.1953 36.0792C28.9532 37.0527 28.083 37.7385 27.0799 37.7385H30.0111C31.0142 37.7385 31.8845 37.0528 32.1265 36.0792C32.7388 33.6176 33.6863 31.2517 34.9423 29.0479C35.988 27.2129 36.5853 25.0896 36.5853 22.8265C36.5854 15.8163 30.8537 10.1447 23.821 10.2427ZM24.0004 8.6356C23.7761 8.63557 23.5611 8.54648 23.4025 8.38792C23.244 8.22936 23.1549 8.01431 23.1549 7.79006V1.35253C23.1582 1.13047 23.2487 0.918613 23.4069 0.762743C23.5651 0.606873 23.7783 0.519501 24.0004 0.519501C24.2225 0.519501 24.4357 0.606873 24.5939 0.762743C24.7521 0.918613 24.8426 1.13047 24.8459 1.35253V7.79006C24.8459 8.01431 24.7568 8.22936 24.5982 8.38792C24.4397 8.54648 24.2246 8.63557 24.0004 8.6356ZM7.28308 25.3522H0.845546C0.623478 25.3489 0.411624 25.2583 0.255755 25.1001C0.099885 24.9419 0.0125122 24.7287 0.0125122 24.5066C0.0125122 24.2845 0.099885 24.0714 0.255755 23.9131C0.411624 23.7549 0.623478 23.6644 0.845546 23.6611H7.28308C7.50515 23.6644 7.717 23.7549 7.87287 23.9131C8.02874 24.0714 8.11611 24.2845 8.11611 24.5066C8.11611 24.7287 8.02874 24.9419 7.87287 25.1001C7.717 25.2583 7.50515 25.3489 7.28308 25.3522ZM47.1545 25.3528H40.717C40.4949 25.3495 40.283 25.259 40.1272 25.1008C39.9713 24.9426 39.8839 24.7294 39.8839 24.5073C39.8839 24.2852 39.9713 24.072 40.1272 23.9138C40.283 23.7556 40.4949 23.6651 40.717 23.6618H47.1545C47.3766 23.6651 47.5884 23.7556 47.7443 23.9138C47.9001 24.072 47.9875 24.2852 47.9875 24.5073C47.9875 24.7294 47.9001 24.9426 47.7443 25.1008C47.5884 25.259 47.3766 25.3495 47.1545 25.3528ZM12.1796 13.5317C12.0686 13.5319 11.9586 13.5101 11.856 13.4675C11.7534 13.425 11.6602 13.3627 11.5818 13.284L7.02967 8.73188C6.95116 8.65337 6.88887 8.56017 6.84638 8.45759C6.80389 8.35501 6.78202 8.24507 6.78202 8.13403C6.78202 8.023 6.80389 7.91306 6.84638 7.81048C6.88887 7.7079 6.95116 7.6147 7.02967 7.53619C7.10818 7.45768 7.20138 7.39539 7.30396 7.3529C7.40654 7.31041 7.51648 7.28854 7.62751 7.28854C7.73855 7.28854 7.84849 7.31041 7.95107 7.3529C8.05365 7.39539 8.14685 7.45768 8.22536 7.53619L12.7774 12.0882C12.8559 12.1667 12.9182 12.2599 12.9607 12.3625C13.0032 12.4651 13.025 12.575 13.025 12.6861C13.025 12.7971 13.0032 12.907 12.9607 13.0096C12.9182 13.1122 12.8559 13.2054 12.7774 13.2839C12.699 13.3626 12.6059 13.425 12.5033 13.4675C12.4007 13.51 12.2907 13.5318 12.1796 13.5317ZM40.3724 41.7255C40.2614 41.7257 40.1514 41.7039 40.0488 41.6614C39.9462 41.6188 39.853 41.5565 39.7746 41.4778L35.2225 36.9258C35.144 36.8473 35.0817 36.7541 35.0393 36.6515C34.9968 36.5489 34.9749 36.439 34.9749 36.3279C34.9749 36.2169 34.9968 36.107 35.0393 36.0044C35.0817 35.9018 35.144 35.8086 35.2225 35.7301C35.3011 35.6516 35.3943 35.5893 35.4968 35.5468C35.5994 35.5043 35.7094 35.4824 35.8204 35.4824C35.9314 35.4824 36.0414 35.5043 36.1439 35.5468C36.2465 35.5893 36.3397 35.6516 36.4182 35.7301L40.9703 40.2821C41.0488 40.3606 41.1111 40.4538 41.1536 40.5564C41.196 40.659 41.2179 40.7689 41.2179 40.88C41.2179 40.991 41.196 41.1009 41.1536 41.2035C41.1111 41.3061 41.0488 41.3993 40.9703 41.4778C40.8918 41.5565 40.7987 41.6188 40.6961 41.6613C40.5935 41.7038 40.4835 41.7256 40.3724 41.7255ZM7.62705 41.725C7.51599 41.7252 7.40599 41.7034 7.30339 41.6609C7.20079 41.6184 7.1076 41.556 7.0292 41.4773C6.95069 41.3988 6.88841 41.3056 6.84591 41.2031C6.80342 41.1005 6.78155 40.9905 6.78155 40.8795C6.78155 40.7685 6.80342 40.6585 6.84591 40.5559C6.88841 40.4534 6.95069 40.3602 7.0292 40.2817L11.5812 35.7296C11.6597 35.6511 11.7529 35.5888 11.8555 35.5463C11.9581 35.5038 12.068 35.482 12.1791 35.482C12.2901 35.482 12.4001 35.5038 12.5026 35.5463C12.6052 35.5888 12.6984 35.6511 12.7769 35.7296C12.8554 35.8081 12.9177 35.9013 12.9602 36.0039C13.0027 36.1065 13.0246 36.2164 13.0246 36.3275C13.0246 36.4385 13.0027 36.5484 12.9602 36.651C12.9177 36.7536 12.8554 36.8468 12.7769 36.9253L8.22489 41.4773C8.14647 41.556 8.05328 41.6183 7.95068 41.6608C7.84808 41.7033 7.7381 41.7252 7.62705 41.725ZM35.821 13.5321C35.7099 13.5322 35.5999 13.5104 35.4973 13.4679C35.3947 13.4254 35.3015 13.363 35.2231 13.2844C35.1446 13.2059 35.0823 13.1127 35.0398 13.0101C34.9973 12.9075 34.9755 12.7976 34.9755 12.6865C34.9755 12.5755 34.9973 12.4656 35.0398 12.363C35.0823 12.2604 35.1446 12.1672 35.2231 12.0887L39.7751 7.53666C39.8536 7.45814 39.9468 7.39586 40.0494 7.35337C40.152 7.31088 40.262 7.28901 40.373 7.28901C40.484 7.28901 40.594 7.31088 40.6965 7.35337C40.7991 7.39586 40.8923 7.45814 40.9708 7.53666C41.0493 7.61517 41.1116 7.70837 41.1541 7.81095C41.1966 7.91353 41.2185 8.02347 41.2185 8.1345C41.2185 8.24553 41.1966 8.35548 41.1541 8.45806C41.1116 8.56063 41.0493 8.65384 40.9708 8.73235L36.4188 13.2844C36.3404 13.363 36.2472 13.4254 36.1446 13.4679C36.042 13.5104 35.932 13.5322 35.821 13.5321Z" fill="#FDBF00"/>
<path d="M27.8712 28.4047H27.0754C26.8533 28.4013 26.6415 28.3108 26.4856 28.1526C26.3297 27.9944 26.2424 27.7812 26.2424 27.5591C26.2424 27.337 26.3297 27.1239 26.4856 26.9656C26.6415 26.8074 26.8533 26.7169 27.0754 26.7136H27.8712C28.0932 26.7169 28.3051 26.8074 28.4609 26.9656C28.6168 27.1239 28.7042 27.337 28.7042 27.5591C28.7042 27.7812 28.6168 27.9944 28.4609 28.1526C28.3051 28.3108 28.0932 28.4013 27.8712 28.4047Z" fill="#FDBF00"/>
<path d="M17.8519 44.4152V45.8935C17.8519 45.9658 17.8584 46.0365 17.8676 46.1063H30.1331C30.143 46.0358 30.1483 45.9647 30.1488 45.8935V44.4152H17.8519Z" fill="#9DD7FC"/>
<path d="M27.2177 44.7509C27.2182 45.2263 27.0945 45.6935 26.8589 46.1063H30.133C30.1369 46.0774 30.1399 46.048 30.1425 46.0188C30.1458 45.9774 30.1488 45.9359 30.1488 45.8936V44.4153H27.2176L27.2177 44.7509Z" fill="#49BAED"/>
<path d="M17.8521 38.4718H30.1496V40.1629H17.8521V38.4718Z" fill="#9DD7FC"/>
<path d="M27.2172 38.4718H30.1484V40.1629H27.2172V38.4718Z" fill="#49BAED"/>
<path d="M17.8521 41.4436H30.1496V43.1347H17.8521V41.4436Z" fill="#9DD7FC"/>
<path d="M27.2172 41.4436H30.1484V43.1347H27.2172V41.4436Z" fill="#49BAED"/>
<path d="M20.0401 21.1736C19.4767 21.893 19.0462 22.7071 18.7689 23.5778C18.6962 23.8064 18.4611 23.9411 18.2286 23.8815L14.2385 22.8571C14.179 22.8418 14.1233 22.8144 14.0749 22.7767C14.0264 22.739 13.9861 22.6918 13.9566 22.638C13.927 22.5842 13.9088 22.5249 13.903 22.4638C13.8973 22.4027 13.904 22.341 13.923 22.2826C14.4501 20.6604 15.1962 19.2462 16.2409 17.8979C16.2785 17.8494 16.3256 17.8091 16.3794 17.7795C16.4332 17.7499 16.4924 17.7316 16.5535 17.7257C16.6146 17.7198 16.6763 17.7266 16.7347 17.7454C16.7931 17.7643 16.8471 17.7949 16.8932 17.8354L19.9868 20.5563C20.167 20.7146 20.1881 20.9848 20.0401 21.1736ZM23.7393 18.6076C22.8687 18.8848 22.0546 19.3152 21.3353 19.8786C21.1464 20.0266 20.8762 20.0055 20.7176 19.8253L17.9967 16.7317C17.8257 16.5372 17.8546 16.2381 18.0593 16.0793C19.4075 15.0347 20.8217 14.2885 22.4439 13.7615C22.5023 13.7425 22.564 13.7357 22.6251 13.7415C22.6863 13.7473 22.7456 13.7655 22.7994 13.795C22.8532 13.8246 22.9004 13.8649 22.9381 13.9133C22.9757 13.9618 23.0031 14.0175 23.0184 14.0769L24.0428 18.067C24.1026 18.2997 23.9678 18.5349 23.7393 18.6076Z" fill="#FEF3CA"/>
<path d="M23.1925 37.7384V28.4048H23.5495C23.7715 28.4015 23.9834 28.311 24.1393 28.1528C24.2951 27.9946 24.3825 27.7814 24.3825 27.5593C24.3825 27.3372 24.2951 27.124 24.1393 26.9658C23.9834 26.8076 23.7715 26.7171 23.5495 26.7138H22.3469C22.1227 26.7138 21.9076 26.8029 21.7491 26.9615C21.5905 27.12 21.5014 27.3351 21.5014 27.5593V37.7384H23.1925Z" fill="#FDBF00"/>
</svg>
