<svg width="466" height="389" viewBox="0 0 466 389" fill="none" xmlns="http://www.w3.org/2000/svg">
<g clip-path="url(#clip0_1586_434)">
<path d="M21.6538 370.677C28.1177 382.664 41.8363 387.81 41.8363 387.81C41.8363 387.81 45.075 373.521 38.6111 361.533C32.1472 349.546 18.4285 344.4 18.4285 344.4C18.4285 344.4 15.1899 358.69 21.6538 370.677Z" fill="#2F2E41"/>
<path d="M26.0963 366.733C37.7663 373.754 42.2607 387.699 42.2607 387.699C42.2607 387.699 27.8344 390.261 16.1645 383.241C4.49448 376.22 0 362.275 0 362.275C0 362.275 14.4263 359.712 26.0963 366.733Z" fill="#D9E6BA"/>
<path d="M287.742 18.6738H214.93V19.714H287.742V18.6738Z" fill="#F2F2F2"/>
<path d="M267.978 19.4551H266.938V29.0764H267.978V19.4551Z" fill="#F2F2F2"/>
<path d="M236.251 19.4551H235.211V29.0764H236.251V19.4551Z" fill="#F2F2F2"/>
<path d="M324.664 68.6016H251.852V69.6417H324.664V68.6016Z" fill="#F2F2F2"/>
<path d="M272.657 59.2402H271.617V68.8616H272.657V59.2402Z" fill="#F2F2F2"/>
<path d="M304.384 59.2402H303.344V68.8616H304.384V59.2402Z" fill="#F2F2F2"/>
<path d="M421.398 92.0059H348.586V93.046H421.398V92.0059Z" fill="#F2F2F2"/>
<path d="M369.392 82.6445H368.352V92.2659H369.392V82.6445Z" fill="#F2F2F2"/>
<path d="M401.118 82.6445H400.078V92.2659H401.118V82.6445Z" fill="#F2F2F2"/>
<path d="M414.117 333.318H341.305V334.359H414.117V333.318Z" fill="#F2F2F2"/>
<path d="M362.11 323.957H361.07V333.578H362.11V323.957Z" fill="#F2F2F2"/>
<path d="M393.837 323.957H392.797V333.578H393.837V323.957Z" fill="#F2F2F2"/>
<path d="M289.82 166.375H217.008V167.415H289.82V166.375Z" fill="#F2F2F2"/>
<path d="M237.814 157.014H236.773V166.635H237.814V157.014Z" fill="#F2F2F2"/>
<path d="M269.532 157.014H268.492V166.635H269.532V157.014Z" fill="#F2F2F2"/>
<path d="M312.703 291.713H239.891V292.753H312.703V291.713Z" fill="#F2F2F2"/>
<path d="M260.696 282.352H259.656V291.973H260.696V282.352Z" fill="#F2F2F2"/>
<path d="M292.423 282.352H291.383V291.973H292.423V282.352Z" fill="#F2F2F2"/>
<path d="M429.203 253.748H356.391V254.788H429.203V253.748Z" fill="#F2F2F2"/>
<path d="M377.196 244.387H376.156V254.008H377.196V244.387Z" fill="#F2F2F2"/>
<path d="M408.923 244.387H407.883V254.008H408.923V244.387Z" fill="#F2F2F2"/>
<path d="M188.306 365.188H65.1562V364.302H187.42V321.334H75.5091L70.0727 310.008L70.8715 309.625L76.0667 320.448H188.306V365.188Z" fill="#2F2E41"/>
<path d="M81.5449 386.892C86.6826 386.892 90.8476 382.727 90.8476 377.59C90.8476 372.452 86.6826 368.287 81.5449 368.287C76.4071 368.287 72.2422 372.452 72.2422 377.59C72.2422 382.727 76.4071 386.892 81.5449 386.892Z" fill="#3F3D56"/>
<path d="M173.24 386.892C178.378 386.892 182.543 382.727 182.543 377.59C182.543 372.452 178.378 368.287 173.24 368.287C168.102 368.287 163.938 372.452 163.938 377.59C163.938 382.727 168.102 386.892 173.24 386.892Z" fill="#3F3D56"/>
<path d="M281.329 185.783C284.51 185.783 287.088 183.205 287.088 180.024C287.088 176.844 284.51 174.266 281.329 174.266C278.149 174.266 275.57 176.844 275.57 180.024C275.57 183.205 278.149 185.783 281.329 185.783Z" fill="#3F3D56"/>
<path d="M201.474 306.715H63.0526L33.1016 208.818H232.319L232.137 209.394L201.474 306.715ZM63.708 305.829H200.824L231.111 209.704H34.299L63.708 305.829Z" fill="#2F2E41"/>
<path d="M190.669 301.621H69.0884L42.7812 214.799H217.761L217.601 215.31L190.669 301.621Z" fill="#F2F2F2"/>
<path d="M234.802 200.073L233.945 199.846L239.792 177.811H273.8V178.697H240.473L234.802 200.073Z" fill="#2F2E41"/>
<path d="M222.365 238.498H42.7812V239.384H222.365V238.498Z" fill="#2F2E41"/>
<path d="M212.079 271.137H52.7656V272.023H212.079V271.137Z" fill="#2F2E41"/>
<path d="M133.152 209.262H132.266V306.273H133.152V209.262Z" fill="#2F2E41"/>
<path d="M172.821 209.234L166.461 306.242L167.345 306.3L173.705 209.292L172.821 209.234Z" fill="#2F2E41"/>
<path d="M92.6186 209.231L91.7344 209.289L98.0573 306.3L98.9415 306.242L92.6186 209.231Z" fill="#2F2E41"/>
<path d="M466 387.455H0V388.495H466V387.455Z" fill="#2F2E41"/>
<path d="M309.664 32.1807C309.664 32.1807 317.267 53.819 312.588 57.148C307.91 60.477 328.379 87.6636 328.379 87.6636L352.942 81.0056L339.491 58.2577C339.491 58.2577 337.736 35.5097 337.736 32.1807C337.736 28.8517 309.664 32.1807 309.664 32.1807Z" fill="#A0616A"/>
<path opacity="0.1" d="M309.664 32.1807C309.664 32.1807 317.267 53.819 312.588 57.148C307.91 60.477 328.379 87.6636 328.379 87.6636L352.942 81.0056L339.491 58.2577C339.491 58.2577 337.736 35.5097 337.736 32.1807C337.736 28.8517 309.664 32.1807 309.664 32.1807Z" fill="black"/>
<path d="M296.908 186.423C296.908 186.423 294.689 214.164 296.908 228.59C299.128 243.015 302.457 282.963 302.457 282.963C302.457 282.963 302.457 358.419 314.663 359.529C326.87 360.639 335.747 361.748 336.857 357.31C337.967 352.871 331.309 350.652 334.638 348.432C337.967 346.213 339.077 338.446 334.638 329.568C330.199 320.691 334.638 230.809 334.638 230.809L355.722 287.401C355.722 287.401 357.941 334.007 360.161 340.665C362.38 347.323 357.941 359.529 365.709 360.639C373.477 361.748 382.354 355.09 386.793 352.871C391.232 350.652 380.135 350.652 382.354 349.542C384.574 348.432 391.232 345.103 389.013 343.994C386.793 342.884 384.574 289.621 384.574 289.621C384.574 289.621 378.471 175.881 370.703 171.442C362.935 167.004 357.941 174.649 357.941 174.649L296.908 186.423Z" fill="#2F2E41"/>
<path d="M316.876 355.09V363.967C316.876 363.967 306.889 388.098 316.876 388.098C326.863 388.098 334.631 390.599 334.631 387.27V357.309L316.876 355.09Z" fill="#2F2E41"/>
<path d="M382.349 355.074V363.951C382.349 363.951 392.336 388.083 382.349 388.083C372.362 388.083 364.594 390.583 364.594 387.254V357.294L382.349 355.074Z" fill="#2F2E41"/>
<path d="M325.201 48.2699C336.233 48.2699 345.175 39.3273 345.175 28.2961C345.175 17.2649 336.233 8.32227 325.201 8.32227C314.169 8.32227 305.227 17.2649 305.227 28.2961C305.227 39.3273 314.169 48.2699 325.201 48.2699Z" fill="#A0616A"/>
<path d="M319.102 65.4707C319.102 65.4707 324.651 82.1156 333.528 78.7866L342.406 75.4576L357.941 181.985C357.941 181.985 345.735 199.739 327.98 188.643C310.225 177.546 319.102 65.4707 319.102 65.4707Z" fill="#D9E6BA"/>
<path d="M334.633 62.1413L339.626 51.5996C339.626 51.5996 369.033 65.4703 373.472 69.909C377.911 74.3476 377.911 81.0055 377.911 81.0055L370.143 108.747C370.143 108.747 372.362 169.778 372.362 171.997C372.362 174.217 380.13 186.423 374.582 181.984C369.033 177.546 367.924 173.107 363.485 179.765C359.046 186.423 349.059 194.191 349.059 194.191L334.633 62.1413Z" fill="#3F3D56"/>
<path d="M373.477 142.035L370.148 173.106C370.148 173.106 350.174 190.86 354.612 191.97C359.051 193.079 361.271 188.641 361.271 188.641C361.271 188.641 369.038 196.408 373.477 191.97C377.916 187.531 389.013 145.364 389.013 145.364L373.477 142.035Z" fill="#A0616A"/>
<path d="M325.627 0.0675425C321.199 -0.0907522 316.46 -0.169055 312.726 2.21711C311.009 3.41463 309.502 4.88949 308.268 6.58133C304.632 11.178 301.49 16.9616 302.841 22.6648L304.409 22.053C304.409 23.5753 304.071 25.0786 303.419 26.4542C303.639 25.8118 304.379 26.8502 304.181 27.4999L302.453 33.1691C305.294 32.1277 308.828 34.2362 309.26 37.2307C309.458 30.6459 310.141 23.0953 315.482 19.2396C318.176 17.2953 321.586 16.7017 324.866 16.1746C327.892 15.6883 331.064 15.2246 333.962 16.2208C336.861 17.217 339.329 20.1812 338.672 23.1747C340.008 22.7143 341.503 23.6457 342.164 24.8954C342.824 26.145 342.859 27.6192 342.879 29.0326C344.303 30.0393 345.925 28.0402 346.505 26.3952C347.868 22.534 349.079 18.4239 348.345 14.3956C347.611 10.3673 344.328 6.51764 340.234 6.50398C340.731 5.95807 340.996 5.24026 340.973 4.50235L337.598 4.21719C338.455 4.09588 339.243 3.68045 339.827 3.04206C338.472 4.53308 327.818 0.145871 325.627 0.0675425Z" fill="#2F2E41"/>
<path d="M324.648 58.8123C324.648 58.8123 315.615 49.9602 312.364 50.5024C309.113 51.0447 304.674 58.8123 304.674 58.8123C304.674 58.8123 278.041 67.6895 279.151 76.5668C280.261 85.4441 292.467 128.721 292.467 128.721C292.467 128.721 302.454 180.875 293.577 186.423C284.699 191.971 335.745 206.397 336.855 199.739C337.965 193.081 340.184 126.501 336.855 116.514C333.526 106.528 324.648 58.8123 324.648 58.8123Z" fill="#3F3D56"/>
<path d="M363.484 76.5664H377.206C377.206 76.5664 386.788 118.733 387.898 123.172C389.007 127.611 391.227 148.694 390.117 148.694C389.007 148.694 366.813 144.255 366.813 147.584L363.484 76.5664Z" fill="#3F3D56"/>
<path d="M363.02 180.985H310.491C305.365 157.405 304.937 134.622 310.491 112.855H363.02C354.543 134.231 354.013 156.857 363.02 180.985Z" fill="#F2F2F2"/>
<path d="M289.141 152.023L304.676 158.681C304.676 158.681 334.638 163.12 334.638 150.913C334.638 138.707 304.676 145.365 304.676 145.365L294.688 142.172L289.141 152.023Z" fill="#A0616A"/>
<path d="M292.466 69.9082L279.15 73.2372L269.162 132.049C269.162 132.049 265.833 147.584 271.382 148.694C276.93 149.803 292.466 158.681 292.466 158.681C292.466 158.681 294.685 142.036 299.124 142.036L288.027 133.159L294.685 94.3207L292.466 69.9082Z" fill="#3F3D56"/>
<path d="M104.148 183.537H31.3359V184.577H104.148V183.537Z" fill="#F2F2F2"/>
<path d="M52.1417 174.176H51.1016V183.797H52.1417V174.176Z" fill="#F2F2F2"/>
<path d="M83.8605 174.176H82.8203V183.797H83.8605V174.176Z" fill="#F2F2F2"/>
<path d="M129.633 29.5957H56.8203V30.6358H129.633V29.5957Z" fill="#F2F2F2"/>
<path d="M109.868 30.377H108.828V39.9983H109.868V30.377Z" fill="#F2F2F2"/>
<path d="M78.1417 30.377H77.1016V39.9983H78.1417V30.377Z" fill="#F2F2F2"/>
<path d="M202.961 132.051H130.148V133.091H202.961V132.051Z" fill="#F2F2F2"/>
<path d="M183.204 132.83H182.164V142.451H183.204V132.83Z" fill="#F2F2F2"/>
<path d="M151.478 132.83H150.438V142.451H151.478V132.83Z" fill="#F2F2F2"/>
<path d="M79.1797 131.531H6.36719V132.571H79.1797V131.531Z" fill="#F2F2F2"/>
<path d="M59.423 132.311H58.3828V141.932H59.423V132.311Z" fill="#F2F2F2"/>
<path d="M27.6964 132.311H26.6562V141.932H27.6964V132.311Z" fill="#F2F2F2"/>
<path d="M166.555 79.5234H93.7422V80.5636H166.555V79.5234Z" fill="#F2F2F2"/>
<path d="M114.548 70.1621H113.508V79.7835H114.548V70.1621Z" fill="#F2F2F2"/>
<path d="M146.275 70.1621H145.234V79.7835H146.275V70.1621Z" fill="#F2F2F2"/>
</g>
<defs>
<clipPath id="clip0_1586_434">
<rect width="466" height="389" fill="white"/>
</clipPath>
</defs>
</svg>
