<svg width="49" height="50" viewBox="0 0 49 50" fill="none" xmlns="http://www.w3.org/2000/svg">
<path d="M0 46.1536V3.84643C0 2.82629 0.397143 1.84794 1.10406 1.12659C1.81098 0.405247 2.76977 0 3.7695 0L45.2305 0C46.2302 0 47.189 0.405247 47.8959 1.12659C48.6029 1.84794 49 2.82629 49 3.84643V46.1536C49 47.1737 48.6029 48.1521 47.8959 48.8734C47.189 49.5947 46.2302 50 45.2305 50H33.9255V31.7679H36.5995C37.2094 31.7679 37.7943 31.5206 38.2255 31.0806C38.6567 30.6406 38.899 30.0437 38.899 29.4214V26.4643C38.8999 26.1559 38.8411 25.8503 38.7258 25.5652C38.6106 25.2801 38.4413 25.0211 38.2276 24.803C38.0138 24.5849 37.76 24.4121 37.4806 24.2945C37.2012 24.177 36.9017 24.1169 36.5995 24.1179H34.0725V20.5C34.0725 17.2679 35.5075 17.2679 36.939 17.2679H38.7835C39.0869 17.2796 39.3893 17.2241 39.6696 17.1051C39.95 16.9861 40.2017 16.8064 40.4075 16.5786C40.6261 16.3647 40.7993 16.1072 40.9161 15.8221C41.0329 15.537 41.0909 15.2304 41.0865 14.9214V12.0786C41.1054 11.4457 40.8776 10.8309 40.4532 10.369C40.0287 9.90713 39.4422 9.63573 38.822 9.61428H34.489C33.2241 9.5654 31.9639 9.79736 30.7955 10.2941C29.627 10.7909 28.5782 11.5407 27.7216 12.4915C26.8649 13.4424 26.2208 14.5718 25.8338 15.8016C25.4468 17.0314 25.3261 18.3322 25.48 19.6143V24.1143H23.065C22.7601 24.1095 22.4573 24.1667 22.1743 24.2825C21.8912 24.3983 21.6336 24.5704 21.4163 24.7888C21.1991 25.0071 21.0266 25.2674 20.9088 25.5544C20.7911 25.8415 20.7305 26.1495 20.7305 26.4607V29.425C20.7309 29.7362 20.792 30.0441 20.9102 30.331C21.0283 30.6179 21.2012 30.8779 21.4188 31.0959C21.6364 31.3139 21.8943 31.4856 22.1775 31.601C22.4607 31.7163 22.7636 31.7731 23.0685 31.7679H25.48V50H3.7695C2.76977 50 1.81098 49.5947 1.10406 48.8734C0.397143 48.1521 0 47.1737 0 46.1536Z" fill="#0D2A25"/>
</svg>
