<svg width="49" height="50" viewBox="0 0 49 50" fill="none" xmlns="http://www.w3.org/2000/svg">
<path d="M14.3536 0.177551C11.7464 0.302543 9.96607 0.727515 8.41236 1.35039C6.77844 1.98192 5.29873 2.96855 4.07586 4.24187C2.83308 5.49307 1.87172 7.00496 1.25836 8.67283C0.656066 10.2644 0.245691 12.0851 0.131358 14.7433C0.0170243 17.4014 -0.0095174 18.2597 0.0027326 25.0488C0.0149826 31.838 0.0456076 32.6879 0.172191 35.3544C0.296733 38.0147 0.711191 39.8312 1.32165 41.4186C1.95048 43.0622 2.79165 44.4538 4.15548 45.8412C5.38292 47.1098 6.86611 48.0907 8.50219 48.716C10.06 49.3306 11.8424 49.7493 14.4496 49.866C17.0588 49.9826 17.8979 50.0097 24.5497 49.9972C31.2014 49.9847 32.0385 49.9535 34.6498 49.8264C37.2631 49.7014 39.0333 49.2743 40.5911 48.6535C42.2243 48.0217 43.7032 47.0351 44.9255 45.7621C46.1688 44.5097 47.1302 42.9963 47.743 41.3269C48.3453 39.7375 48.7557 37.9188 48.868 35.2607C48.9823 32.5942 49.0109 31.7401 48.9966 24.953C48.9844 18.166 48.9558 17.3139 48.8312 14.6474C48.7087 11.9809 48.2922 10.1727 47.6797 8.58325C47.0611 6.91704 46.0949 5.40797 44.8479 4.16062C43.6211 2.89232 42.1386 1.91138 40.5033 1.28581C38.9434 0.673352 37.1631 0.252546 34.5539 0.140054C31.9466 0.0213116 31.1075 -0.00993634 24.4537 0.00256284C17.7999 0.015062 16.9669 0.04631 14.3536 0.177551ZM14.6394 45.3683C12.2507 45.2642 10.9542 44.858 10.0906 44.5184C9.02477 44.121 8.06037 43.4838 7.26902 42.6539C6.45307 41.8499 5.82503 40.8688 5.43152 39.7833C5.09465 38.9021 4.6904 37.5793 4.58015 35.1419C4.45765 32.5088 4.43315 31.7171 4.41682 25.0426C4.40457 18.368 4.42907 17.5785 4.54136 14.9432C4.64344 12.508 5.04361 11.1831 5.37436 10.3019C5.81536 9.13321 6.34823 8.30202 7.20165 7.42291C7.99019 6.59009 8.95251 5.94926 10.0171 5.54803C10.8807 5.2043 12.1751 4.796 14.5639 4.67934C17.1466 4.55435 17.9204 4.52935 24.4619 4.51268C31.0014 4.50018 31.7772 4.52518 34.364 4.64184C36.7486 4.746 38.0471 5.15014 38.9108 5.49179C40.0541 5.94176 40.8708 6.4813 41.7324 7.35625C42.5939 8.23119 43.1227 9.05822 43.5699 10.2269C43.9067 11.106 44.3089 12.4267 44.4212 14.8662C44.5437 17.5014 44.5723 18.293 44.5846 24.9655C44.5948 31.638 44.5723 32.4296 44.46 35.0648C44.3559 37.5022 43.9598 38.825 43.627 39.7104C43.186 40.877 42.6531 41.7102 41.7977 42.5852C41.0097 43.4177 40.0481 44.0586 38.9843 44.4601C38.1227 44.8038 36.8242 45.2142 34.4395 45.3308C31.8548 45.4558 31.081 45.4808 24.5374 45.4954C17.9939 45.51 17.2242 45.4808 14.6394 45.3683ZM34.6131 11.6393C34.6139 12.2327 34.7871 12.8125 35.111 13.3054C35.4348 13.7983 35.8946 14.1822 36.4322 14.4084C36.9699 14.6346 37.5612 14.693 38.1314 14.5763C38.7016 14.4596 39.2251 14.1729 39.6356 13.7526C40.0461 13.3323 40.3252 12.7972 40.4376 12.215C40.55 11.6328 40.4907 11.0297 40.2671 10.4819C40.0435 9.93407 39.6658 9.46625 39.1816 9.13756C38.6974 8.80887 38.1285 8.63409 37.5469 8.63533C36.7676 8.63699 36.0207 8.95434 35.4706 9.51763C34.9204 10.0809 34.612 10.8441 34.6131 11.6393ZM11.922 25.0259C11.9285 28.4301 13.2601 31.6923 15.6238 34.0947C17.9876 36.4972 21.1899 37.8432 24.5262 37.8365C27.8626 37.8299 31.0597 36.4712 33.4142 34.0594C35.7688 31.6476 37.0879 28.3801 37.0814 24.9759C37.0333 21.5998 35.6835 18.3789 33.3243 16.0111C30.9652 13.6433 27.7867 12.3193 24.4775 12.3259C21.1683 12.3325 17.9949 13.6691 15.6448 16.0463C13.2947 18.4234 11.9572 21.6496 11.922 25.0259ZM16.334 25.0176C16.3308 23.3695 16.8066 21.7575 17.7013 20.3853C18.596 19.0132 19.8693 17.9426 21.3604 17.3088C22.8514 16.6751 24.4931 16.5067 26.0779 16.825C27.6627 17.1433 29.1194 17.934 30.2638 19.097C31.4082 20.26 32.1889 21.7432 32.5072 23.3589C32.8255 24.9747 32.6671 26.6505 32.0519 28.1743C31.4368 29.6982 30.3926 31.0018 29.0514 31.9201C27.7102 32.8385 26.1322 33.3304 24.517 33.3337C23.4446 33.3359 22.3822 33.1225 21.3905 32.7058C20.3989 32.2891 19.4974 31.6771 18.7375 30.9049C17.9777 30.1327 17.3743 29.2153 16.9619 28.2051C16.5495 27.195 16.3362 26.1119 16.334 25.0176Z" fill="#0D2A25"/>
</svg>
