<svg width="50" height="51" viewBox="0 0 50 51" fill="none" xmlns="http://www.w3.org/2000/svg">
<path d="M44.4444 0C45.9179 0 47.3309 0.597022 48.3728 1.65973C49.4147 2.72243 50 4.16377 50 5.66667V45.3333C50 46.8362 49.4147 48.2776 48.3728 49.3403C47.3309 50.403 45.9179 51 44.4444 51H5.55556C4.08213 51 2.66905 50.403 1.62718 49.3403C0.585316 48.2776 0 46.8362 0 45.3333V5.66667C0 4.16377 0.585316 2.72243 1.62718 1.65973C2.66905 0.597022 4.08213 0 5.55556 0H44.4444ZM43.0556 43.9167V28.9C43.0556 26.4503 42.1015 24.1009 40.4032 22.3687C38.705 20.6365 36.4017 19.6633 34 19.6633C31.6389 19.6633 28.8889 21.1367 27.5556 23.3467V20.2017H19.8056V43.9167H27.5556V29.9483C27.5556 27.7667 29.2778 25.9817 31.4167 25.9817C32.4481 25.9817 33.4372 26.3996 34.1665 27.1435C34.8958 27.8874 35.3056 28.8963 35.3056 29.9483V43.9167H43.0556ZM10.7778 15.7533C12.0155 15.7533 13.2024 15.2518 14.0776 14.3592C14.9528 13.4665 15.4444 12.2558 15.4444 10.9933C15.4444 8.35833 13.3611 6.205 10.7778 6.205C9.53273 6.205 8.33868 6.70948 7.4583 7.60747C6.57792 8.50546 6.08333 9.72339 6.08333 10.9933C6.08333 13.6283 8.19444 15.7533 10.7778 15.7533ZM14.6389 43.9167V20.2017H6.94444V43.9167H14.6389Z" fill="#0D2A25"/>
</svg>
