<svg width="412" height="462" viewBox="0 0 412 462" fill="none" xmlns="http://www.w3.org/2000/svg">
<g clip-path="url(#clip0_1650_304)">
<path d="M233.567 355.979C332.114 355.979 412.002 276.29 412.002 177.989C412.002 79.6886 332.114 0 233.567 0C135.021 0 55.1328 79.6886 55.1328 177.989C55.1328 276.29 135.021 355.979 233.567 355.979Z" fill="#F2F2F2"/>
<path d="M350.172 79.5964H23.3048C22.6039 79.5814 22.0478 79.0025 22.0628 78.3033C22.0773 77.6252 22.625 77.079 23.3048 77.0645H350.172C350.873 77.0794 351.429 77.6583 351.414 78.3575C351.4 79.0356 350.852 79.5819 350.172 79.5964Z" fill="#CACACA"/>
<path d="M238.773 122.262H148.414C141.627 122.262 136.125 127.75 136.125 134.52V134.52C136.125 141.29 141.627 146.778 148.414 146.778H238.773C245.56 146.778 251.062 141.29 251.062 134.52C251.062 127.75 245.56 122.262 238.773 122.262Z" fill="white"/>
<path d="M90.0389 171.295H297.143C303.93 171.295 309.432 176.783 309.432 183.553C309.432 190.323 303.93 195.811 297.143 195.811H90.0389C83.2519 195.811 77.75 190.323 77.75 183.553C77.75 176.783 83.2519 171.295 90.0389 171.295Z" fill="white"/>
<path d="M90.0389 220.326H297.143C303.93 220.326 309.432 225.814 309.432 232.584C309.432 239.355 303.93 244.843 297.143 244.843H90.0389C83.2519 244.843 77.75 239.355 77.75 232.584C77.75 225.814 83.2519 220.326 90.0389 220.326Z" fill="white"/>
<path d="M64.3746 460.923L63.8872 460.875C47.3499 459.173 32.4002 450.301 23.0099 436.616C20.4378 432.803 18.3573 428.682 16.8174 424.35L16.6694 423.937L17.1075 423.902C22.339 423.482 27.7134 422.596 30.1008 422.175L14.7058 416.972L14.6106 416.516C13.6979 412.239 15.486 407.838 19.1266 405.401C22.7771 402.847 27.6179 402.766 31.3529 405.195C33.0291 406.263 34.7822 407.32 36.4776 408.344C42.3035 411.859 48.3279 415.494 52.8446 420.467C59.6936 428.16 62.6957 438.525 61.0146 448.676L64.3746 460.923Z" fill="#F2F2F2"/>
<path d="M120.338 453.285L127.925 453.284L131.535 424.09L120.336 424.091L120.338 453.285Z" fill="#A0616A"/>
<path d="M120.071 461.181L143.404 461.18V460.886C143.403 455.883 139.337 451.827 134.322 451.827L130.059 448.602L122.107 451.827L120.07 451.827L120.071 461.181Z" fill="#2F2E41"/>
<path d="M59.5312 432.322L65.6001 436.863L86.052 415.672L77.0937 408.969L59.5312 432.322Z" fill="#A0616A"/>
<path d="M54.5625 438.476L73.2272 452.444L73.4043 452.208C76.414 448.206 75.6017 442.528 71.5899 439.525L70.1206 434.393L61.819 432.213L60.1896 430.994L54.5625 438.476Z" fill="#2F2E41"/>
<path d="M84.755 316.283C84.755 316.283 85.1738 327.68 85.7021 336.82C85.7888 338.319 82.2682 339.948 82.3594 341.578C82.4198 342.66 83.0816 343.712 83.1431 344.84C83.2079 346.031 82.2943 347.084 82.3594 348.316C82.4229 349.519 83.4652 350.898 83.5281 352.129C84.2047 365.38 86.6575 381.243 84.2014 385.677C82.991 387.863 67.5625 418.139 67.5625 418.139C67.5625 418.139 76.1587 431.001 78.6148 426.714C81.8587 421.051 106.86 394.558 106.86 389.499C106.86 384.446 112.644 346.576 112.644 346.576L116.677 368.987L118.526 373.427L117.945 376.034L119.14 379.552L119.204 383.034L120.368 389.499C120.368 389.499 116.868 439.87 118.839 441.272C120.816 442.681 130.389 445.211 131.518 442.681C132.642 440.151 139.956 390.111 139.956 390.111C139.956 390.111 141.135 367.18 142.412 345.866C142.486 344.628 143.358 343.134 143.425 341.915C143.505 340.5 142.952 338.663 143.026 337.291C143.106 335.717 143.806 334.608 143.873 333.101C144.395 321.458 141.465 307.28 140.532 305.883C137.714 301.669 135.178 298.3 135.178 298.3C135.178 298.3 97.2181 285.859 87.0745 298.501L84.755 316.283Z" fill="#2F2E41"/>
<path d="M122.615 199.084L107.567 196.082L100.545 205.589C87.4413 218.441 87.2439 229.784 89.5831 247.965V273.484L87.8901 290.59C87.8901 290.59 81.8967 303.095 88.0783 306.006C94.2599 308.918 134.864 308.67 138.74 307.508C142.617 306.345 139.257 304.918 138.239 299.502C136.326 289.328 137.606 294.235 137.737 290.996C139.624 244.527 135.229 225.45 134.783 220.435L127.13 206.589L122.615 199.084Z" fill="#3F3D56"/>
<path d="M201.924 236.551C200.355 239.515 196.675 240.65 193.703 239.085C193.387 238.919 193.085 238.724 192.803 238.505L160.305 259.088L160.398 247.881L191.968 229.607C194.216 227.092 198.083 226.871 200.604 229.115C202.714 230.991 203.259 234.066 201.924 236.551Z" fill="#A0616A"/>
<path d="M110.734 212.062L107.034 211.671C103.615 211.318 100.261 212.778 98.1968 215.519C97.4061 216.559 96.8382 217.749 96.5284 219.017L96.5262 219.027C95.5981 222.843 97.0537 226.842 100.22 229.175L112.999 238.572C121.966 250.66 138.82 258.679 158.59 265.194L189.319 246.157L178.45 233.026L157.372 244.294L126.042 220.101L126.024 220.087L114.1 212.423L110.734 212.062Z" fill="#3F3D56"/>
<path d="M117.525 191.714C127.216 191.714 135.073 183.877 135.073 174.21C135.073 164.542 127.216 156.705 117.525 156.705C107.833 156.705 99.9766 164.542 99.9766 174.21C99.9766 183.877 107.833 191.714 117.525 191.714Z" fill="#A0616A"/>
<path d="M117.931 191.717C117.79 191.721 117.648 191.725 117.506 191.728C117.446 191.885 117.38 192.041 117.305 192.193L117.931 191.717Z" fill="#2F2E41"/>
<path d="M122.75 174.695C122.778 174.868 122.82 175.038 122.876 175.203C122.853 175.03 122.81 174.859 122.75 174.695Z" fill="#2F2E41"/>
<path d="M135.298 157.454C134.576 159.691 133.931 156.854 131.555 157.364C128.697 157.978 125.37 157.767 123.03 156.019C119.542 153.467 115.022 152.78 110.93 154.18C106.925 155.593 100.215 156.59 99.1711 160.698C98.8084 162.126 98.6643 163.676 97.785 164.859C97.0162 165.894 95.8027 166.484 94.788 167.28C91.3618 169.969 93.9805 177.609 95.6021 181.646C97.2237 185.683 100.944 188.623 105.033 190.13C108.99 191.587 113.285 191.844 117.506 191.73C118.241 189.83 117.923 187.636 117.318 185.667C116.662 183.536 115.691 181.478 115.417 179.265C115.143 177.052 115.744 174.539 117.605 173.302C119.314 172.165 122.097 172.858 122.747 174.695C122.368 172.398 124.701 170.175 127.106 169.784C129.689 169.364 132.272 170.294 134.847 170.757C137.422 171.22 136.508 160.405 135.298 157.454Z" fill="#2F2E41"/>
<path d="M233.447 203.164C235.083 183.448 220.386 166.141 200.62 164.51C180.854 162.878 163.504 177.538 161.868 197.255C160.232 216.972 174.93 234.278 194.696 235.91C214.462 237.542 231.811 222.881 233.447 203.164Z" fill="#D9E6BA"/>
<path d="M207.089 185.285L197.655 194.695L188.222 185.285C186.695 183.762 184.219 183.762 182.692 185.285C181.165 186.808 181.165 189.278 182.692 190.801L192.125 200.211L182.692 209.621C181.167 211.145 181.169 213.615 182.697 215.137C184.224 216.657 186.696 216.657 188.222 215.137L197.655 205.727L207.089 215.137C208.617 216.659 211.093 216.656 212.619 215.132C214.142 213.609 214.142 211.143 212.619 209.621L203.185 200.211L212.619 190.801C214.146 189.278 214.146 186.808 212.619 185.285C211.092 183.762 208.616 183.762 207.089 185.285Z" fill="white"/>
<path d="M183.505 170.102C184.563 173.283 182.836 176.717 179.647 177.773C179.307 177.886 178.958 177.968 178.604 178.02L170.995 215.662L162.953 207.836L171.589 172.461C171.326 169.101 173.844 166.165 177.212 165.903C180.03 165.684 182.632 167.42 183.505 170.102Z" fill="#A0616A"/>
<path d="M102.651 218.79L99.8062 221.182C97.1837 223.398 95.9181 226.824 96.4718 230.207C96.6765 231.496 97.1447 232.729 97.8472 233.83L97.853 233.838C99.9709 237.148 103.871 238.869 107.751 238.205L123.396 235.513C138.349 237.426 155.818 230.846 174.217 221.126L181.719 185.828L164.696 184.561L158.255 207.533L119.064 213.336L119.041 213.339L105.242 216.617L102.651 218.79Z" fill="#3F3D56"/>
<path d="M191.738 461.784L0.83375 461.999C0.371795 461.998 -0.00149184 461.623 4.48283e-06 461.162C0.00148675 460.704 0.373895 460.332 0.83375 460.331L191.738 460.115C192.2 460.117 192.573 460.491 192.571 460.952C192.57 461.411 192.197 461.782 191.738 461.784Z" fill="#CACACA"/>
<path d="M39.8861 63.5593C43.1671 63.5593 45.8268 60.8471 45.8268 57.5014C45.8268 54.1556 43.1671 51.4434 39.8861 51.4434C36.6051 51.4434 33.9453 54.1556 33.9453 57.5014C33.9453 60.8471 36.6051 63.5593 39.8861 63.5593Z" fill="#3F3D56"/>
<path d="M60.4095 63.5593C63.6905 63.5593 66.3503 60.8471 66.3503 57.5014C66.3503 54.1556 63.6905 51.4434 60.4095 51.4434C57.1285 51.4434 54.4688 54.1556 54.4688 57.5014C54.4688 60.8471 57.1285 63.5593 60.4095 63.5593Z" fill="#3F3D56"/>
<path d="M80.9329 63.5593C84.2139 63.5593 86.8737 60.8471 86.8737 57.5014C86.8737 54.1556 84.2139 51.4434 80.9329 51.4434C77.652 51.4434 74.9922 54.1556 74.9922 57.5014C74.9922 60.8471 77.652 63.5593 80.9329 63.5593Z" fill="#3F3D56"/>
<path d="M104.336 62.2886C104.154 62.2886 103.971 62.2181 103.834 62.0778L99.8254 57.9904C99.5582 57.718 99.5582 57.2828 99.8254 57.0104L103.834 52.9233C104.106 52.6469 104.551 52.6424 104.827 52.9124C105.105 53.183 105.11 53.6268 104.838 53.9033L101.31 57.5004L104.838 61.0979C105.11 61.3744 105.105 61.8181 104.827 62.0888C104.691 62.2222 104.513 62.2886 104.336 62.2886Z" fill="#3F3D56"/>
<path d="M111.07 62.2891C110.892 62.2891 110.715 62.2227 110.579 62.0893C110.301 61.8186 110.296 61.3752 110.568 61.0984L114.095 57.5009L110.568 53.9038C110.296 53.6273 110.301 53.1835 110.579 52.9129C110.855 52.6419 111.301 52.647 111.572 52.9238L115.58 57.0109C115.847 57.2833 115.847 57.7185 115.58 57.9909L111.572 62.0783C111.434 62.2186 111.252 62.2891 111.07 62.2891Z" fill="#3F3D56"/>
<path d="M320.773 52.1445H313.32C312.47 52.1445 311.781 52.8312 311.781 53.6792V61.1211C311.781 61.969 312.47 62.6557 313.32 62.6557H320.773C321.623 62.6557 322.319 61.969 322.319 61.1211V53.6792C322.319 52.8312 321.623 52.1445 320.773 52.1445Z" fill="#3F3D56"/>
<path d="M302.508 52.1445H295.054C294.204 52.1445 293.516 52.8312 293.516 53.6792V61.1211C293.516 61.969 294.204 62.6557 295.054 62.6557H302.508C303.358 62.6557 304.053 61.969 304.053 61.1211V53.6792C304.053 52.8312 303.358 52.1445 302.508 52.1445Z" fill="#3F3D56"/>
<path d="M337.984 52.4941H330.531C329.681 52.4941 328.992 53.1809 328.992 54.0288V61.4707C328.992 62.3186 329.681 63.0053 330.531 63.0053H337.984C338.834 63.0053 339.53 62.3186 339.53 61.4707V54.0288C339.53 53.1809 338.834 52.4941 337.984 52.4941Z" fill="#3F3D56"/>
<path d="M225.634 55.3262H166.055C165.016 55.3262 164.18 56.1671 164.18 57.1972C164.18 58.2273 165.016 59.0682 166.055 59.0682H225.634C226.667 59.0682 227.51 58.2273 227.51 57.1972C227.51 56.1671 226.667 55.3262 225.634 55.3262Z" fill="#3F3D56"/>
</g>
<defs>
<clipPath id="clip0_1650_304">
<rect width="412" height="462" fill="white"/>
</clipPath>
</defs>
</svg>
