<svg width="495" height="446" viewBox="0 0 495 446" fill="none" xmlns="http://www.w3.org/2000/svg">
<g clip-path="url(#clip0_1651_1239)">
<path opacity="0.1" d="M244.629 446.001C367.92 446.001 467.868 346.16 467.868 223C467.868 99.8407 367.92 0 244.629 0C121.338 0 21.3906 99.8407 21.3906 223C21.3906 346.16 121.338 446.001 244.629 446.001Z" fill="#D9E6BA"/>
<path d="M493.499 157.022L430.024 348.509C424.917 363.928 408.265 372.283 392.829 367.181L247.866 319.233L238.836 280.577L288.936 250.181L268.918 195.515L272.903 190.299L279.362 181.842L300.904 153.633L280.239 94.0084L306.486 64.1895L474.814 119.867C490.242 124.969 498.613 141.603 493.499 157.022Z" fill="#D9E6BA"/>
<path d="M409.979 318.363C405.251 332.627 389.7 340.432 375.421 335.709C369.255 333.67 364.49 329.576 361.129 324.507C356.9 317.713 355.37 309.293 358.056 301.189C360.742 293.084 367.108 286.917 374.453 284.311C380.179 282.248 386.447 281.804 392.613 283.843C406.892 288.565 414.707 304.1 409.979 318.363Z" fill="white"/>
<path d="M351.389 321.285C345.664 323.348 339.395 323.793 333.229 321.753C318.951 317.031 311.137 301.496 315.865 287.233C320.593 272.969 336.144 265.164 350.422 269.887C356.588 271.927 361.353 276.02 364.714 281.089C357.261 284.019 352.286 290.287 349.6 298.391C346.914 306.496 347.053 314.815 351.389 321.285Z" fill="#262626"/>
<path d="M283.786 188.6C283.085 190.713 281.12 192.051 279.006 192.051C278.482 192.051 277.952 191.963 277.428 191.793L272.906 190.298L279.366 181.842L280.59 182.249C283.228 183.119 284.656 185.965 283.786 188.6Z" fill="white"/>
<path d="M356.827 207.467L305.057 190.343C302.42 189.471 299.573 190.9 298.7 193.535C297.826 196.17 299.257 199.013 301.894 199.885L353.664 217.009C356.302 217.882 359.148 216.453 360.021 213.818C360.895 211.183 359.465 208.34 356.827 207.467Z" fill="white"/>
<path d="M433.077 232.688L381.307 215.564C378.67 214.692 375.823 216.12 374.95 218.755C374.076 221.39 375.507 224.234 378.144 225.106L429.914 242.23C432.552 243.103 435.398 241.674 436.272 239.039C437.145 236.404 435.715 233.561 433.077 232.688Z" fill="white"/>
<path d="M192.393 319.722L218.015 350.064L64.3815 373.512C48.3069 375.964 33.2931 364.94 30.8384 348.889L0.341644 149.483C-2.11306 133.432 8.9229 118.434 24.9907 115.982L154.294 96.25L144.469 134.723L189.986 178.466L183.615 213.373L181.704 223.833L180.528 230.286L223.21 269.913L192.393 319.722Z" fill="#D9E6BA"/>
<path d="M83.8654 143.707L45.8332 149.511C39.2591 150.515 34.744 156.652 35.7484 163.219L39.1327 185.345C40.1372 191.912 46.2808 196.423 52.8549 195.419L90.8871 189.615C97.4613 188.611 101.976 182.474 100.972 175.907L97.5876 153.781C96.5832 147.214 90.4395 142.703 83.8654 143.707Z" fill="white"/>
<path d="M105.499 225.294L51.5906 233.522C48.8439 233.941 46.9574 236.506 47.3771 239.249C47.7967 241.993 50.3636 243.878 53.1104 243.458L107.019 235.231C109.765 234.811 111.652 232.247 111.232 229.503C110.812 226.76 108.246 224.875 105.499 225.294Z" fill="white"/>
<path d="M183.618 213.373L181.707 223.833L132.504 231.339C129.757 231.76 127.187 229.879 126.772 227.135C126.731 226.876 126.711 226.618 126.711 226.367C126.711 223.929 128.492 221.782 130.981 221.409L183.618 213.373Z" fill="white"/>
<path d="M163.815 68.788L138.922 47.6695L160.829 37.0332L163.815 68.788Z" fill="#D9E6BA"/>
<path d="M214.445 75.2666L231.53 60.8496L233.023 76.727L214.445 75.2666Z" fill="#D9E6BA"/>
</g>
<defs>
<clipPath id="clip0_1651_1239">
<rect width="495" height="446" fill="white"/>
</clipPath>
</defs>
</svg>
