<svg width="519" height="395" viewBox="0 0 519 395" fill="none" xmlns="http://www.w3.org/2000/svg">
<g clip-path="url(#clip0_1625_563)">
<path d="M207.68 81.9139H205.787V30.0294C205.787 26.0859 205.01 22.181 203.502 18.5376C201.993 14.8943 199.782 11.5839 196.994 8.79541C194.207 6.00693 190.897 3.79498 187.255 2.28586C183.613 0.776741 179.709 3.34125e-06 175.767 0H65.8789C57.9172 -1.51826e-05 50.2817 3.16376 44.6519 8.79535C39.0222 14.4269 35.8594 22.065 35.8594 30.0293V314.672C35.8594 318.615 36.6358 322.52 38.1445 326.164C39.6531 329.807 41.8643 333.117 44.6519 335.906C47.4394 338.694 50.7487 340.906 54.3909 342.415C58.033 343.925 61.9366 344.701 65.8788 344.701H175.767C183.729 344.701 191.364 341.538 196.994 335.906C202.624 330.274 205.787 322.636 205.787 314.672V118.846H207.68V81.9139Z" fill="#3F3D56"/>
<path d="M176.976 7.8125H162.632C163.292 9.43027 163.544 11.1855 163.365 12.9235C163.187 14.6616 162.584 16.3291 161.61 17.7793C160.636 19.2294 159.32 20.4176 157.779 21.2392C156.237 22.0608 154.518 22.4906 152.771 22.4907H89.8175C88.0709 22.4906 86.3511 22.0608 84.8097 21.2392C83.2683 20.4176 81.9525 19.2294 80.9782 17.7793C80.004 16.3291 79.4012 14.6616 79.223 12.9236C79.0448 11.1855 79.2966 9.43027 79.9562 7.8125H66.5589C63.6149 7.8125 60.6997 8.39255 57.9798 9.51954C55.2599 10.6465 52.7885 12.2984 50.7068 14.3808C48.6251 16.4632 46.9737 18.9354 45.8471 21.6562C44.7205 24.377 44.1406 27.2931 44.1406 30.2381V314.463C44.1406 317.408 44.7205 320.324 45.8471 323.045C46.9737 325.766 48.625 328.238 50.7068 330.32C52.7885 332.403 55.2599 334.055 57.9798 335.182C60.6997 336.309 63.6148 336.889 66.5588 336.889H176.976C179.92 336.889 182.835 336.309 185.555 335.182C188.275 334.055 190.747 332.403 192.828 330.32C194.91 328.238 196.561 325.766 197.688 323.045C198.815 320.324 199.395 317.408 199.395 314.463V30.2381C199.395 27.2931 198.815 24.377 197.688 21.6562C196.561 18.9354 194.91 16.4632 192.828 14.3808C190.747 12.2984 188.275 10.6465 185.555 9.51954C182.835 8.39255 179.92 7.8125 176.976 7.8125Z" fill="white"/>
<path d="M242.899 344.751H0.635862C0.467221 344.751 0.305486 344.684 0.186239 344.564C0.0669919 344.445 0 344.283 0 344.115C0 343.946 0.0669919 343.784 0.186239 343.665C0.305486 343.546 0.467221 343.479 0.635862 343.479H242.899C243.068 343.479 243.23 343.546 243.349 343.665C243.468 343.784 243.535 343.946 243.535 344.115C243.535 344.283 243.468 344.445 243.349 344.564C243.23 344.684 243.068 344.751 242.899 344.751Z" fill="#CBCBCB"/>
<path d="M121.766 219.877C151.422 219.877 175.462 195.828 175.462 166.163C175.462 136.498 151.422 112.449 121.766 112.449C92.1109 112.449 68.0703 136.498 68.0703 166.163C68.0703 195.828 92.1109 219.877 121.766 219.877Z" fill="#D9E6BA"/>
<path d="M116.444 186.653C115.236 186.655 114.06 186.264 113.094 185.539L113.034 185.494L100.415 175.837C99.8302 175.389 99.3398 174.83 98.9713 174.192C98.6028 173.554 98.3635 172.85 98.267 172.12C98.1706 171.39 98.2189 170.647 98.4092 169.936C98.5995 169.224 98.9281 168.557 99.3761 167.972C99.8242 167.388 100.383 166.897 101.021 166.528C101.658 166.16 102.362 165.92 103.092 165.824C103.822 165.727 104.564 165.776 105.276 165.966C105.987 166.156 106.654 166.485 107.239 166.933L115.412 173.203L134.727 147.997C135.175 147.412 135.734 146.922 136.371 146.553C137.009 146.185 137.712 145.945 138.442 145.849C139.172 145.753 139.914 145.801 140.625 145.991C141.336 146.182 142.003 146.51 142.587 146.958L142.588 146.959L142.468 147.126L142.592 146.959C143.77 147.865 144.541 149.202 144.736 150.677C144.93 152.151 144.532 153.642 143.628 154.823L120.91 184.458C120.384 185.141 119.708 185.694 118.935 186.073C118.161 186.453 117.311 186.649 116.449 186.646L116.444 186.653Z" fill="white"/>
<path d="M441.445 350.031C442.099 348.974 442.868 347.994 443.738 347.108C444.097 346.735 444.476 346.384 444.866 346.043C447.24 343.929 450.135 342.486 453.251 341.862C456.368 341.238 459.594 341.455 462.599 342.492C465.604 343.529 468.278 345.348 470.347 347.761C472.416 350.175 473.805 353.096 474.371 356.225C476.994 346.523 470.167 336.967 463.304 329.627C456.437 322.289 448.588 314.24 448.627 304.185C448.647 298.591 451.382 293.599 455.513 289.899C455.641 289.787 455.768 289.675 455.898 289.567C460.891 285.286 467.314 283.047 473.885 283.296C486.093 283.95 496.753 292.158 504.155 301.893C516.071 317.558 521.292 339.547 512.95 357.379C505.613 373.062 489.965 382.375 473.994 389.862C471.764 390.908 469.538 391.922 467.317 392.905C467.303 392.908 467.287 392.919 467.272 392.923C467.165 392.97 467.058 393.017 466.958 393.065C466.499 393.267 466.041 393.47 465.586 393.67L465.797 393.807L466.453 394.233C466.226 394.095 466 393.961 465.773 393.823C465.705 393.781 465.633 393.742 465.566 393.7C457.722 388.992 449.769 384.011 444.35 376.661C438.73 369.03 436.471 358.098 441.445 350.031Z" fill="#F1F1F1"/>
<path d="M493.775 332.307C495.512 336.26 496.663 340.445 497.193 344.73C497.61 348.551 497.453 352.412 496.728 356.187C495.17 363.944 491.773 371.213 486.823 377.382C483.088 382.067 478.776 386.26 473.99 389.862C471.76 390.908 469.535 391.922 467.313 392.905C467.299 392.908 467.283 392.919 467.268 392.923C467.161 392.97 467.054 393.017 466.954 393.065C466.495 393.268 466.037 393.47 465.582 393.67L465.793 393.807L466.449 394.233C466.222 394.095 465.997 393.961 465.769 393.823C465.701 393.781 465.63 393.742 465.562 393.7C467.288 387.66 467.542 381.294 466.302 375.136C465.062 368.977 462.365 363.206 458.436 358.305C454.486 353.466 449.448 349.629 443.734 347.108C444.093 346.735 444.472 346.385 444.862 346.043C447.063 347.054 449.17 348.258 451.159 349.64C458.273 354.558 463.615 361.637 466.394 369.829C468.875 377.26 469.185 385.246 467.287 392.847C467.681 392.59 468.076 392.325 468.46 392.063C475.768 387.133 482.502 381.213 487.575 373.953C491.95 367.817 494.75 360.7 495.728 353.227C496.7 345.064 494.658 337.036 491.015 329.753C486.992 321.96 481.922 314.755 475.947 308.336C469.946 301.74 463.16 295.904 455.742 290.957C455.575 290.845 455.457 290.672 455.414 290.475C455.371 290.278 455.405 290.072 455.509 289.899C455.589 289.742 455.727 289.623 455.894 289.567C455.979 289.545 456.068 289.543 456.153 289.56C456.239 289.578 456.32 289.614 456.39 289.667C457.306 290.279 458.214 290.895 459.111 291.53C466.581 296.822 473.366 303.022 479.309 309.987C485.051 316.7 490.277 324.159 493.775 332.307Z" fill="white"/>
<path d="M333.857 24.9416C340.155 24.9416 345.26 19.8344 345.26 13.5343C345.26 7.23419 340.155 2.12695 333.857 2.12695C327.559 2.12695 322.453 7.23419 322.453 13.5343C322.453 19.8344 327.559 24.9416 333.857 24.9416Z" fill="#F1F1F1"/>
<path d="M475.648 177.597C479.488 177.597 482.6 174.483 482.6 170.642C482.6 166.801 479.488 163.688 475.648 163.688C471.808 163.688 468.695 166.801 468.695 170.642C468.695 174.483 471.808 177.597 475.648 177.597Z" fill="#F1F1F1"/>
<path d="M272.179 196.679C276.019 196.679 279.132 193.565 279.132 189.724C279.132 185.883 276.019 182.77 272.179 182.77C268.339 182.77 265.227 185.883 265.227 189.724C265.227 193.565 268.339 196.679 272.179 196.679Z" fill="#F1F1F1"/>
<path d="M276.105 395.001H518.368C518.537 395.001 518.698 394.934 518.818 394.814C518.937 394.695 519.004 394.533 519.004 394.365C519.004 394.196 518.937 394.034 518.818 393.915C518.698 393.796 518.537 393.729 518.368 393.729H276.105C275.936 393.729 275.774 393.796 275.655 393.915C275.536 394.034 275.469 394.196 275.469 394.365C275.469 394.533 275.536 394.695 275.655 394.814C275.774 394.934 275.936 395.001 276.105 395.001Z" fill="#CBCBCB"/>
<path d="M491.628 61.4673C491.946 59.208 491.425 56.9105 490.163 55.0101C488.901 53.1097 486.985 51.7385 484.78 51.1563C482.575 50.574 480.233 50.8212 478.197 51.851C476.162 52.8808 474.575 54.6216 473.737 56.7437L454.078 79.2888L459.846 95.4048L479.617 69.0617C480.907 69.4751 482.272 69.6005 483.616 69.4291C484.96 69.2577 486.25 68.7936 487.395 68.0695C488.54 67.3455 489.513 66.379 490.244 65.2383C490.975 64.0976 491.448 62.8104 491.628 61.4673Z" fill="#FFB7B7"/>
<path d="M410.137 149.19L475.394 79.5221L466.592 65.5234L384.742 134.769L410.137 149.19Z" fill="#3F3D56"/>
<path d="M395.571 106.86C408.213 106.86 418.462 96.6076 418.462 83.9611C418.462 71.3145 408.213 61.0625 395.571 61.0625C382.928 61.0625 372.68 71.3145 372.68 83.9611C372.68 96.6076 382.928 106.86 395.571 106.86Z" fill="#2F2E41"/>
<path d="M397.414 71.0255C402.34 66.0289 408.301 62.173 414.877 59.7294C419.098 58.1651 423.693 57.1985 428.106 58.087C432.519 58.9753 436.693 62.0294 437.924 66.3608C438.931 69.9027 437.891 73.7162 436.329 77.0503C434.766 80.3845 432.68 83.4762 431.417 86.9348C430.128 90.4637 429.74 94.2589 430.289 97.9757C430.838 101.693 432.306 105.213 434.56 108.219C436.815 111.224 439.784 113.618 443.198 115.185C446.612 116.751 450.363 117.439 454.11 117.188C449.774 117.769 445.777 119.808 441.539 120.893C437.3 121.978 432.298 121.904 429.148 118.867C425.816 115.653 425.749 110.428 425.91 105.8C426.15 98.9212 426.389 92.0421 426.629 85.163C426.751 81.6548 426.855 78.0341 425.59 74.7597C424.325 71.4853 421.32 68.618 417.811 68.6478C415.151 68.6704 412.797 70.2821 410.665 71.8714C408.532 73.4608 406.274 75.1566 403.625 75.393C400.976 75.6294 397.951 73.6683 398.15 71.0152L397.414 71.0255Z" fill="#2F2E41"/>
<path d="M308.631 237.714C306.433 238.324 304.088 238.107 302.04 237.104C299.991 236.1 298.382 234.38 297.517 232.269C296.651 230.158 296.59 227.803 297.345 225.65C298.1 223.497 299.618 221.696 301.611 220.587L321.387 198.145L338.113 201.759L314.588 224.809C315.166 226.035 315.469 227.372 315.475 228.727C315.481 230.083 315.189 231.422 314.621 232.653C314.053 233.883 313.222 234.974 312.187 235.848C311.152 236.723 309.938 237.359 308.631 237.714Z" fill="#FFB7B7"/>
<path d="M373.696 157.367L324.407 219.256L309.383 212.356L367.316 122.133L373.696 157.367Z" fill="#3F3D56"/>
<path d="M334.364 344.249L322.617 344.064L324.03 384.115H334.362L334.364 344.249Z" fill="#FFB7B7"/>
<path d="M337.004 380.741L316.656 380.74H316.655C313.216 380.74 309.918 382.107 307.486 384.54C305.054 386.972 303.688 390.272 303.688 393.712V394.133L337.004 394.135L337.004 380.741Z" fill="#2F2E41"/>
<path d="M412.145 333.627L399.312 341.868L424.981 372.759L433.676 367.175L412.145 333.627Z" fill="#FFB7B7"/>
<path d="M434.069 362.91L416.946 373.907L416.946 373.907C414.052 375.766 412.014 378.699 411.282 382.06C410.549 385.421 411.182 388.936 413.04 391.831L413.267 392.186L441.303 374.181L434.069 362.91Z" fill="#2F2E41"/>
<path d="M416.714 211.328C416.714 211.328 388.203 116.6 379.04 115.32C369.877 114.04 355.113 139.626 355.113 139.626C335.972 164.056 316.234 243.192 316.234 243.192C316.234 243.192 349.138 245.251 373.191 258.053C397.243 270.854 425.629 257.404 425.629 257.404L416.714 211.328Z" fill="#3F3D56"/>
<path opacity="0.1" d="M416.714 211.328C416.714 211.328 388.203 116.6 379.04 115.319C369.877 114.039 358.863 139.885 358.863 139.885C349.325 179.322 316.234 243.191 316.234 243.191C316.234 243.191 349.138 245.251 373.191 258.052C397.243 270.853 425.629 257.404 425.629 257.404L416.714 211.328Z" fill="black"/>
<path d="M393.323 182.987V230.587L398.923 299.539L426.901 351.697L413.548 361.238L375.396 311.625L360.307 262.362L336.609 371.416L318.805 370.143L331.17 218.942L354.634 176.383L393.323 182.987Z" fill="#2F2E41"/>
<path d="M364.575 136.947C355.673 145.852 363.939 155.393 363.939 155.393L353.766 178.291L393.825 189.105L407.824 126.529L398.286 116.352C379.21 115.716 379.2 115.32 379.2 115.32C375.858 118.592 364.575 136.947 364.575 136.947Z" fill="#D9E6BA"/>
<path d="M409.434 120.045C407.615 118.702 405.547 117.733 403.351 117.195C401.154 116.656 398.873 116.559 396.639 116.909C394.405 117.259 392.262 118.048 390.335 119.232C388.408 120.416 386.735 121.971 385.413 123.806C375.342 137.833 366.031 160.483 378.861 188.731C399.462 234.089 417.39 257.309 424.678 257.307C424.996 257.309 425.313 257.259 425.615 257.159C430.101 255.637 436.587 248.043 437.761 241.351C438.182 238.956 438.082 235.62 435.218 233.329C426.993 226.748 412.227 206.257 407.621 179.286C405.075 164.383 410.012 150.808 414.601 142.044C416.54 138.418 417.107 134.214 416.198 130.204C415.29 126.193 412.967 122.645 409.656 120.208L409.434 120.045Z" fill="#3F3D56"/>
<path d="M396.755 104.611C404.921 100.145 407.922 89.9038 403.458 81.7353C398.994 73.5668 388.756 70.5648 380.59 75.0301C372.424 79.4954 369.423 89.7371 373.887 97.9056C378.351 106.074 388.589 109.076 396.755 104.611Z" fill="#FFB7B7"/>
<path d="M364.969 88.5454H389.3L389.55 85.051L390.797 88.5454H394.544L395.038 81.6195L397.511 88.5454H404.76V88.2023C404.755 83.3806 402.838 78.7579 399.429 75.3484C396.021 71.9389 391.4 70.0211 386.58 70.0156H383.149C378.329 70.0211 373.708 71.9389 370.3 75.3484C366.891 78.7578 364.974 83.3805 364.969 88.2023V88.5454Z" fill="#2F2E41"/>
<path d="M401.089 101.106L411.472 97.7355V72.5117H391.859L392.345 72.9967C399.101 79.746 406.614 103.692 401.089 101.106Z" fill="#2F2E41"/>
</g>
<defs>
<clipPath id="clip0_1625_563">
<rect width="519" height="395" fill="white"/>
</clipPath>
</defs>
</svg>
